<mxfile host="app.diagrams.net" agent="Mozilla/5.0 (Macintosh; Intel Mac OS X 10_15_7) AppleWebKit/537.36 (KHTML, like Gecko) Chrome/116.0.0.0 Safari/537.36 OPR/102.0.0.0 (Edition std-1)" version="24.7.17">
  <diagram name="Page-1" id="Hp5d1uW3Ptsz4MA8avKc">
    <mxGraphModel dx="3430" dy="2498" grid="1" gridSize="10" guides="1" tooltips="1" connect="1" arrows="1" fold="1" page="1" pageScale="1" pageWidth="850" pageHeight="1100" math="0" shadow="0">
      <root>
        <mxCell id="0" />
        <mxCell id="1" parent="0" />
        <mxCell id="xpVKkxNU8PtLnsWlY8sR-13" value="Video" style="shape=ext;margin=3;double=1;whiteSpace=wrap;html=1;align=center;" parent="1" vertex="1">
          <mxGeometry x="-320" y="-690" width="100" height="80" as="geometry" />
        </mxCell>
        <mxCell id="xpVKkxNU8PtLnsWlY8sR-17" value="Caterory" style="whiteSpace=wrap;html=1;align=center;" parent="1" vertex="1">
          <mxGeometry x="-50" y="-670" width="100" height="40" as="geometry" />
        </mxCell>
        <mxCell id="xpVKkxNU8PtLnsWlY8sR-18" value="Genre" style="ellipse;whiteSpace=wrap;html=1;align=center;fontStyle=4;" parent="1" vertex="1">
          <mxGeometry x="-50" y="-770" width="100" height="40" as="geometry" />
        </mxCell>
        <mxCell id="xpVKkxNU8PtLnsWlY8sR-20" value="Comment" style="shape=ext;margin=3;double=1;whiteSpace=wrap;html=1;align=center;" parent="1" vertex="1">
          <mxGeometry x="-650" y="-470" width="100" height="40" as="geometry" />
        </mxCell>
        <mxCell id="xpVKkxNU8PtLnsWlY8sR-21" value="UserAccount" style="ellipse;whiteSpace=wrap;html=1;align=center;fontStyle=4;" parent="1" vertex="1">
          <mxGeometry x="-710" y="-550" width="100" height="40" as="geometry" />
        </mxCell>
        <mxCell id="xpVKkxNU8PtLnsWlY8sR-22" value="Video" style="ellipse;whiteSpace=wrap;html=1;align=center;fontStyle=4;" parent="1" vertex="1">
          <mxGeometry x="-590" y="-550" width="100" height="40" as="geometry" />
        </mxCell>
        <mxCell id="xpVKkxNU8PtLnsWlY8sR-27" value="Like" style="shape=ext;margin=3;double=1;whiteSpace=wrap;html=1;align=center;" parent="1" vertex="1">
          <mxGeometry x="-650" y="-320" width="100" height="40" as="geometry" />
        </mxCell>
        <mxCell id="xpVKkxNU8PtLnsWlY8sR-28" value="UserAccount" style="ellipse;whiteSpace=wrap;html=1;align=center;fontStyle=4;" parent="1" vertex="1">
          <mxGeometry x="-710" y="-400" width="100" height="40" as="geometry" />
        </mxCell>
        <mxCell id="xpVKkxNU8PtLnsWlY8sR-29" value="Video" style="ellipse;whiteSpace=wrap;html=1;align=center;fontStyle=4;" parent="1" vertex="1">
          <mxGeometry x="-590" y="-400" width="100" height="40" as="geometry" />
        </mxCell>
        <mxCell id="xpVKkxNU8PtLnsWlY8sR-33" value="FromUserAccount" style="ellipse;whiteSpace=wrap;html=1;align=center;fontStyle=4;" parent="1" vertex="1">
          <mxGeometry x="-160" y="-400" width="100" height="40" as="geometry" />
        </mxCell>
        <mxCell id="xpVKkxNU8PtLnsWlY8sR-34" value="ToUserAccount" style="ellipse;whiteSpace=wrap;html=1;align=center;fontStyle=4;" parent="1" vertex="1">
          <mxGeometry x="55" y="-400" width="100" height="40" as="geometry" />
        </mxCell>
        <mxCell id="xpVKkxNU8PtLnsWlY8sR-35" value="Subscription" style="shape=associativeEntity;whiteSpace=wrap;html=1;align=center;" parent="1" vertex="1">
          <mxGeometry x="-50" y="-320" width="100" height="40" as="geometry" />
        </mxCell>
        <mxCell id="xpVKkxNU8PtLnsWlY8sR-38" value="UserAccount" style="ellipse;whiteSpace=wrap;html=1;align=center;fontStyle=4;" parent="1" vertex="1">
          <mxGeometry x="90" y="-750" width="100" height="40" as="geometry" />
        </mxCell>
        <mxCell id="xpVKkxNU8PtLnsWlY8sR-43" value="Playlist" style="shape=ext;margin=3;double=1;whiteSpace=wrap;html=1;align=center;" parent="1" vertex="1">
          <mxGeometry x="197.5" y="-670" width="100" height="40" as="geometry" />
        </mxCell>
        <mxCell id="xpVKkxNU8PtLnsWlY8sR-132" value="" style="shape=table;startSize=0;container=1;collapsible=0;childLayout=tableLayout;" parent="1" vertex="1">
          <mxGeometry x="-850" y="-1100" width="3400" height="10" as="geometry" />
        </mxCell>
        <mxCell id="xpVKkxNU8PtLnsWlY8sR-133" value="" style="shape=tableRow;horizontal=0;startSize=0;swimlaneHead=0;swimlaneBody=0;strokeColor=inherit;top=0;left=0;bottom=0;right=0;collapsible=0;dropTarget=0;fillColor=none;points=[[0,0.5],[1,0.5]];portConstraint=eastwest;" parent="xpVKkxNU8PtLnsWlY8sR-132" vertex="1">
          <mxGeometry width="3400" height="10" as="geometry" />
        </mxCell>
        <mxCell id="xpVKkxNU8PtLnsWlY8sR-134" value="" style="shape=partialRectangle;html=1;whiteSpace=wrap;connectable=0;strokeColor=inherit;overflow=hidden;fillColor=none;top=0;left=0;bottom=0;right=0;pointerEvents=1;" parent="xpVKkxNU8PtLnsWlY8sR-133" vertex="1">
          <mxGeometry width="170" height="10" as="geometry">
            <mxRectangle width="170" height="10" as="alternateBounds" />
          </mxGeometry>
        </mxCell>
        <mxCell id="xpVKkxNU8PtLnsWlY8sR-135" value="" style="shape=partialRectangle;html=1;whiteSpace=wrap;connectable=0;strokeColor=inherit;overflow=hidden;fillColor=none;top=0;left=0;bottom=0;right=0;pointerEvents=1;" parent="xpVKkxNU8PtLnsWlY8sR-133" vertex="1">
          <mxGeometry x="170" width="170" height="10" as="geometry">
            <mxRectangle width="170" height="10" as="alternateBounds" />
          </mxGeometry>
        </mxCell>
        <mxCell id="xpVKkxNU8PtLnsWlY8sR-136" value="" style="shape=partialRectangle;html=1;whiteSpace=wrap;connectable=0;strokeColor=inherit;overflow=hidden;fillColor=none;top=0;left=0;bottom=0;right=0;pointerEvents=1;" parent="xpVKkxNU8PtLnsWlY8sR-133" vertex="1">
          <mxGeometry x="340" width="170" height="10" as="geometry">
            <mxRectangle width="170" height="10" as="alternateBounds" />
          </mxGeometry>
        </mxCell>
        <mxCell id="xpVKkxNU8PtLnsWlY8sR-137" value="" style="shape=partialRectangle;html=1;whiteSpace=wrap;connectable=0;strokeColor=inherit;overflow=hidden;fillColor=none;top=0;left=0;bottom=0;right=0;pointerEvents=1;" parent="xpVKkxNU8PtLnsWlY8sR-133" vertex="1">
          <mxGeometry x="510" width="170" height="10" as="geometry">
            <mxRectangle width="170" height="10" as="alternateBounds" />
          </mxGeometry>
        </mxCell>
        <mxCell id="xpVKkxNU8PtLnsWlY8sR-138" value="" style="shape=partialRectangle;html=1;whiteSpace=wrap;connectable=0;strokeColor=inherit;overflow=hidden;fillColor=none;top=0;left=0;bottom=0;right=0;pointerEvents=1;" parent="xpVKkxNU8PtLnsWlY8sR-133" vertex="1">
          <mxGeometry x="680" width="170" height="10" as="geometry">
            <mxRectangle width="170" height="10" as="alternateBounds" />
          </mxGeometry>
        </mxCell>
        <mxCell id="xpVKkxNU8PtLnsWlY8sR-139" value="" style="shape=partialRectangle;html=1;whiteSpace=wrap;connectable=0;strokeColor=inherit;overflow=hidden;fillColor=none;top=0;left=0;bottom=0;right=0;pointerEvents=1;" parent="xpVKkxNU8PtLnsWlY8sR-133" vertex="1">
          <mxGeometry x="850" width="170" height="10" as="geometry">
            <mxRectangle width="170" height="10" as="alternateBounds" />
          </mxGeometry>
        </mxCell>
        <mxCell id="xpVKkxNU8PtLnsWlY8sR-140" value="" style="shape=partialRectangle;html=1;whiteSpace=wrap;connectable=0;strokeColor=inherit;overflow=hidden;fillColor=none;top=0;left=0;bottom=0;right=0;pointerEvents=1;" parent="xpVKkxNU8PtLnsWlY8sR-133" vertex="1">
          <mxGeometry x="1020" width="170" height="10" as="geometry">
            <mxRectangle width="170" height="10" as="alternateBounds" />
          </mxGeometry>
        </mxCell>
        <mxCell id="xpVKkxNU8PtLnsWlY8sR-141" value="" style="shape=partialRectangle;html=1;whiteSpace=wrap;connectable=0;strokeColor=inherit;overflow=hidden;fillColor=none;top=0;left=0;bottom=0;right=0;pointerEvents=1;" parent="xpVKkxNU8PtLnsWlY8sR-133" vertex="1">
          <mxGeometry x="1190" width="170" height="10" as="geometry">
            <mxRectangle width="170" height="10" as="alternateBounds" />
          </mxGeometry>
        </mxCell>
        <mxCell id="xpVKkxNU8PtLnsWlY8sR-142" value="" style="shape=partialRectangle;html=1;whiteSpace=wrap;connectable=0;strokeColor=inherit;overflow=hidden;fillColor=none;top=0;left=0;bottom=0;right=0;pointerEvents=1;" parent="xpVKkxNU8PtLnsWlY8sR-133" vertex="1">
          <mxGeometry x="1360" width="170" height="10" as="geometry">
            <mxRectangle width="170" height="10" as="alternateBounds" />
          </mxGeometry>
        </mxCell>
        <mxCell id="xpVKkxNU8PtLnsWlY8sR-143" value="" style="shape=partialRectangle;html=1;whiteSpace=wrap;connectable=0;strokeColor=inherit;overflow=hidden;fillColor=none;top=0;left=0;bottom=0;right=0;pointerEvents=1;" parent="xpVKkxNU8PtLnsWlY8sR-133" vertex="1">
          <mxGeometry x="1530" width="170" height="10" as="geometry">
            <mxRectangle width="170" height="10" as="alternateBounds" />
          </mxGeometry>
        </mxCell>
        <mxCell id="xpVKkxNU8PtLnsWlY8sR-144" value="" style="shape=partialRectangle;html=1;whiteSpace=wrap;connectable=0;strokeColor=inherit;overflow=hidden;fillColor=none;top=0;left=0;bottom=0;right=0;pointerEvents=1;" parent="xpVKkxNU8PtLnsWlY8sR-133" vertex="1">
          <mxGeometry x="1700" width="170" height="10" as="geometry">
            <mxRectangle width="170" height="10" as="alternateBounds" />
          </mxGeometry>
        </mxCell>
        <mxCell id="xpVKkxNU8PtLnsWlY8sR-145" value="" style="shape=partialRectangle;html=1;whiteSpace=wrap;connectable=0;strokeColor=inherit;overflow=hidden;fillColor=none;top=0;left=0;bottom=0;right=0;pointerEvents=1;" parent="xpVKkxNU8PtLnsWlY8sR-133" vertex="1">
          <mxGeometry x="1870" width="170" height="10" as="geometry">
            <mxRectangle width="170" height="10" as="alternateBounds" />
          </mxGeometry>
        </mxCell>
        <mxCell id="xpVKkxNU8PtLnsWlY8sR-146" value="" style="shape=partialRectangle;html=1;whiteSpace=wrap;connectable=0;strokeColor=inherit;overflow=hidden;fillColor=none;top=0;left=0;bottom=0;right=0;pointerEvents=1;" parent="xpVKkxNU8PtLnsWlY8sR-133" vertex="1">
          <mxGeometry x="2040" width="170" height="10" as="geometry">
            <mxRectangle width="170" height="10" as="alternateBounds" />
          </mxGeometry>
        </mxCell>
        <mxCell id="xpVKkxNU8PtLnsWlY8sR-147" value="" style="shape=partialRectangle;html=1;whiteSpace=wrap;connectable=0;strokeColor=inherit;overflow=hidden;fillColor=none;top=0;left=0;bottom=0;right=0;pointerEvents=1;" parent="xpVKkxNU8PtLnsWlY8sR-133" vertex="1">
          <mxGeometry x="2210" width="170" height="10" as="geometry">
            <mxRectangle width="170" height="10" as="alternateBounds" />
          </mxGeometry>
        </mxCell>
        <mxCell id="xpVKkxNU8PtLnsWlY8sR-148" value="" style="shape=partialRectangle;html=1;whiteSpace=wrap;connectable=0;strokeColor=inherit;overflow=hidden;fillColor=none;top=0;left=0;bottom=0;right=0;pointerEvents=1;" parent="xpVKkxNU8PtLnsWlY8sR-133" vertex="1">
          <mxGeometry x="2380" width="170" height="10" as="geometry">
            <mxRectangle width="170" height="10" as="alternateBounds" />
          </mxGeometry>
        </mxCell>
        <mxCell id="xpVKkxNU8PtLnsWlY8sR-149" value="" style="shape=partialRectangle;html=1;whiteSpace=wrap;connectable=0;strokeColor=inherit;overflow=hidden;fillColor=none;top=0;left=0;bottom=0;right=0;pointerEvents=1;" parent="xpVKkxNU8PtLnsWlY8sR-133" vertex="1">
          <mxGeometry x="2550" width="170" height="10" as="geometry">
            <mxRectangle width="170" height="10" as="alternateBounds" />
          </mxGeometry>
        </mxCell>
        <mxCell id="xpVKkxNU8PtLnsWlY8sR-150" value="" style="shape=partialRectangle;html=1;whiteSpace=wrap;connectable=0;strokeColor=inherit;overflow=hidden;fillColor=none;top=0;left=0;bottom=0;right=0;pointerEvents=1;" parent="xpVKkxNU8PtLnsWlY8sR-133" vertex="1">
          <mxGeometry x="2720" width="170" height="10" as="geometry">
            <mxRectangle width="170" height="10" as="alternateBounds" />
          </mxGeometry>
        </mxCell>
        <mxCell id="xpVKkxNU8PtLnsWlY8sR-151" value="" style="shape=partialRectangle;html=1;whiteSpace=wrap;connectable=0;strokeColor=inherit;overflow=hidden;fillColor=none;top=0;left=0;bottom=0;right=0;pointerEvents=1;" parent="xpVKkxNU8PtLnsWlY8sR-133" vertex="1">
          <mxGeometry x="2890" width="170" height="10" as="geometry">
            <mxRectangle width="170" height="10" as="alternateBounds" />
          </mxGeometry>
        </mxCell>
        <mxCell id="xpVKkxNU8PtLnsWlY8sR-152" value="" style="shape=partialRectangle;html=1;whiteSpace=wrap;connectable=0;strokeColor=inherit;overflow=hidden;fillColor=none;top=0;left=0;bottom=0;right=0;pointerEvents=1;" parent="xpVKkxNU8PtLnsWlY8sR-133" vertex="1">
          <mxGeometry x="3060" width="170" height="10" as="geometry">
            <mxRectangle width="170" height="10" as="alternateBounds" />
          </mxGeometry>
        </mxCell>
        <mxCell id="xpVKkxNU8PtLnsWlY8sR-153" value="" style="shape=partialRectangle;html=1;whiteSpace=wrap;connectable=0;strokeColor=inherit;overflow=hidden;fillColor=none;top=0;left=0;bottom=0;right=0;pointerEvents=1;" parent="xpVKkxNU8PtLnsWlY8sR-133" vertex="1">
          <mxGeometry x="3230" width="170" height="10" as="geometry">
            <mxRectangle width="170" height="10" as="alternateBounds" />
          </mxGeometry>
        </mxCell>
        <mxCell id="xpVKkxNU8PtLnsWlY8sR-173" value="UserAccount" style="shape=associativeEntity;whiteSpace=wrap;html=1;align=center;" parent="1" vertex="1">
          <mxGeometry x="-650" y="-685" width="120" height="70" as="geometry" />
        </mxCell>
        <mxCell id="xpVKkxNU8PtLnsWlY8sR-178" value="Email" style="ellipse;shape=doubleEllipse;margin=3;whiteSpace=wrap;html=1;align=center;" parent="1" vertex="1">
          <mxGeometry x="-640" y="-770" width="100" height="40" as="geometry" />
        </mxCell>
        <mxCell id="xpVKkxNU8PtLnsWlY8sR-180" value="" style="endArrow=none;html=1;rounded=0;entryX=0.5;entryY=0;entryDx=0;entryDy=0;exitX=0.5;exitY=1;exitDx=0;exitDy=0;" parent="1" source="xpVKkxNU8PtLnsWlY8sR-178" target="xpVKkxNU8PtLnsWlY8sR-173" edge="1">
          <mxGeometry relative="1" as="geometry">
            <mxPoint x="-660" y="-800" as="sourcePoint" />
            <mxPoint x="-500" y="-800" as="targetPoint" />
          </mxGeometry>
        </mxCell>
        <mxCell id="xpVKkxNU8PtLnsWlY8sR-182" value="" style="endArrow=none;html=1;rounded=0;entryX=0;entryY=1;entryDx=0;entryDy=0;exitX=0.5;exitY=0;exitDx=0;exitDy=0;" parent="1" source="xpVKkxNU8PtLnsWlY8sR-208" target="xpVKkxNU8PtLnsWlY8sR-13" edge="1">
          <mxGeometry relative="1" as="geometry">
            <mxPoint x="-320" y="-490" as="sourcePoint" />
            <mxPoint x="-300" y="-609" as="targetPoint" />
            <Array as="points" />
          </mxGeometry>
        </mxCell>
        <mxCell id="xpVKkxNU8PtLnsWlY8sR-184" value="" style="endArrow=none;html=1;rounded=0;exitX=1;exitY=0.5;exitDx=0;exitDy=0;entryX=0;entryY=0.5;entryDx=0;entryDy=0;" parent="1" source="xpVKkxNU8PtLnsWlY8sR-20" target="xpVKkxNU8PtLnsWlY8sR-208" edge="1">
          <mxGeometry relative="1" as="geometry">
            <mxPoint x="-550" y="-450" as="sourcePoint" />
            <mxPoint x="-410" y="-450" as="targetPoint" />
            <Array as="points" />
          </mxGeometry>
        </mxCell>
        <mxCell id="xpVKkxNU8PtLnsWlY8sR-186" value="" style="endArrow=none;html=1;rounded=0;exitX=1;exitY=0.5;exitDx=0;exitDy=0;" parent="1" source="xpVKkxNU8PtLnsWlY8sR-27" target="xpVKkxNU8PtLnsWlY8sR-209" edge="1">
          <mxGeometry relative="1" as="geometry">
            <mxPoint x="-550" y="-300" as="sourcePoint" />
            <mxPoint x="-340" y="-300" as="targetPoint" />
          </mxGeometry>
        </mxCell>
        <mxCell id="xpVKkxNU8PtLnsWlY8sR-187" value="" style="endArrow=none;html=1;rounded=0;exitX=0.5;exitY=1;exitDx=0;exitDy=0;entryX=0.5;entryY=0;entryDx=0;entryDy=0;" parent="1" source="xpVKkxNU8PtLnsWlY8sR-13" target="xpVKkxNU8PtLnsWlY8sR-209" edge="1">
          <mxGeometry relative="1" as="geometry">
            <mxPoint x="-460" y="-360" as="sourcePoint" />
            <mxPoint x="-270" y="-350" as="targetPoint" />
          </mxGeometry>
        </mxCell>
        <mxCell id="xpVKkxNU8PtLnsWlY8sR-188" value="URL" style="ellipse;whiteSpace=wrap;html=1;align=center;fontStyle=4;" parent="1" vertex="1">
          <mxGeometry x="-320" y="-830" width="100" height="40" as="geometry" />
        </mxCell>
        <mxCell id="xpVKkxNU8PtLnsWlY8sR-189" value="" style="endArrow=none;html=1;rounded=0;exitX=0.5;exitY=1;exitDx=0;exitDy=0;entryX=0.5;entryY=0;entryDx=0;entryDy=0;" parent="1" source="xpVKkxNU8PtLnsWlY8sR-188" target="xpVKkxNU8PtLnsWlY8sR-13" edge="1">
          <mxGeometry relative="1" as="geometry">
            <mxPoint x="-370" y="-840" as="sourcePoint" />
            <mxPoint x="-267" y="-700" as="targetPoint" />
          </mxGeometry>
        </mxCell>
        <mxCell id="xpVKkxNU8PtLnsWlY8sR-191" value="Title" style="ellipse;whiteSpace=wrap;html=1;align=center;" parent="1" vertex="1">
          <mxGeometry x="-440" y="-830" width="100" height="40" as="geometry" />
        </mxCell>
        <mxCell id="xpVKkxNU8PtLnsWlY8sR-193" value="Published" style="ellipse;whiteSpace=wrap;html=1;align=center;" parent="1" vertex="1">
          <mxGeometry x="-440" y="-770" width="100" height="40" as="geometry" />
        </mxCell>
        <mxCell id="xpVKkxNU8PtLnsWlY8sR-196" value="" style="endArrow=none;html=1;rounded=0;exitX=0.5;exitY=1;exitDx=0;exitDy=0;entryX=0.25;entryY=0;entryDx=0;entryDy=0;" parent="1" source="xpVKkxNU8PtLnsWlY8sR-191" target="xpVKkxNU8PtLnsWlY8sR-13" edge="1">
          <mxGeometry relative="1" as="geometry">
            <mxPoint x="-380" y="-740" as="sourcePoint" />
            <mxPoint x="-220" y="-740" as="targetPoint" />
            <Array as="points">
              <mxPoint x="-390" y="-780" />
              <mxPoint x="-295" y="-780" />
            </Array>
          </mxGeometry>
        </mxCell>
        <mxCell id="xpVKkxNU8PtLnsWlY8sR-197" value="" style="endArrow=none;html=1;rounded=0;exitX=0.5;exitY=1;exitDx=0;exitDy=0;entryX=0.25;entryY=0;entryDx=0;entryDy=0;" parent="1" source="xpVKkxNU8PtLnsWlY8sR-193" target="xpVKkxNU8PtLnsWlY8sR-13" edge="1">
          <mxGeometry relative="1" as="geometry">
            <mxPoint x="-460" y="-710" as="sourcePoint" />
            <mxPoint x="-300" y="-710" as="targetPoint" />
            <Array as="points">
              <mxPoint x="-390" y="-720" />
              <mxPoint x="-295" y="-720" />
            </Array>
          </mxGeometry>
        </mxCell>
        <mxCell id="xpVKkxNU8PtLnsWlY8sR-198" value="" style="endArrow=none;html=1;rounded=0;exitX=0.75;exitY=0;exitDx=0;exitDy=0;entryX=0.5;entryY=1;entryDx=0;entryDy=0;" parent="1" source="xpVKkxNU8PtLnsWlY8sR-212" target="xpVKkxNU8PtLnsWlY8sR-211" edge="1">
          <mxGeometry relative="1" as="geometry">
            <mxPoint x="-240" y="-690" as="sourcePoint" />
            <mxPoint x="-130" y="-720" as="targetPoint" />
            <Array as="points">
              <mxPoint x="-245" y="-720" />
              <mxPoint x="-150" y="-720" />
            </Array>
          </mxGeometry>
        </mxCell>
        <mxCell id="xpVKkxNU8PtLnsWlY8sR-199" value="" style="endArrow=none;html=1;rounded=0;exitX=0.5;exitY=0;exitDx=0;exitDy=0;entryX=0.5;entryY=1;entryDx=0;entryDy=0;" parent="1" source="xpVKkxNU8PtLnsWlY8sR-17" target="xpVKkxNU8PtLnsWlY8sR-18" edge="1">
          <mxGeometry relative="1" as="geometry">
            <mxPoint x="20" y="-690" as="sourcePoint" />
            <mxPoint x="180" y="-690" as="targetPoint" />
          </mxGeometry>
        </mxCell>
        <mxCell id="xpVKkxNU8PtLnsWlY8sR-200" value="" style="endArrow=none;html=1;rounded=0;exitX=1;exitY=0.5;exitDx=0;exitDy=0;entryX=0;entryY=0.5;entryDx=0;entryDy=0;" parent="1" source="xpVKkxNU8PtLnsWlY8sR-13" target="xpVKkxNU8PtLnsWlY8sR-17" edge="1">
          <mxGeometry relative="1" as="geometry">
            <mxPoint x="-220" y="-650" as="sourcePoint" />
            <mxPoint x="-60" y="-650" as="targetPoint" />
          </mxGeometry>
        </mxCell>
        <mxCell id="xpVKkxNU8PtLnsWlY8sR-202" value="Contains" style="shape=rhombus;double=1;perimeter=rhombusPerimeter;whiteSpace=wrap;html=1;align=center;" parent="1" vertex="1">
          <mxGeometry x="-460" y="-680" width="80" height="60" as="geometry" />
        </mxCell>
        <mxCell id="xpVKkxNU8PtLnsWlY8sR-204" value="Attached to" style="shape=rhombus;perimeter=rhombusPerimeter;whiteSpace=wrap;html=1;align=center;" parent="1" vertex="1">
          <mxGeometry x="-170" y="-680" width="80" height="60" as="geometry" />
        </mxCell>
        <mxCell id="xpVKkxNU8PtLnsWlY8sR-208" value="Attached" style="shape=rhombus;double=1;perimeter=rhombusPerimeter;whiteSpace=wrap;html=1;align=center;" parent="1" vertex="1">
          <mxGeometry x="-360" y="-480" width="80" height="60" as="geometry" />
        </mxCell>
        <mxCell id="xpVKkxNU8PtLnsWlY8sR-209" value="Attached" style="shape=rhombus;double=1;perimeter=rhombusPerimeter;whiteSpace=wrap;html=1;align=center;" parent="1" vertex="1">
          <mxGeometry x="-310" y="-330" width="80" height="60" as="geometry" />
        </mxCell>
        <mxCell id="xpVKkxNU8PtLnsWlY8sR-211" value="Description" style="ellipse;whiteSpace=wrap;html=1;align=center;" parent="1" vertex="1">
          <mxGeometry x="-200" y="-770" width="100" height="40" as="geometry" />
        </mxCell>
        <mxCell id="xpVKkxNU8PtLnsWlY8sR-212" value="Video" style="whiteSpace=wrap;html=1;align=center;" parent="1" vertex="1">
          <mxGeometry x="-320" y="-690" width="100" height="80" as="geometry" />
        </mxCell>
        <mxCell id="xpVKkxNU8PtLnsWlY8sR-213" value="Duration" style="ellipse;whiteSpace=wrap;html=1;align=center;" parent="1" vertex="1">
          <mxGeometry x="-200" y="-830" width="100" height="40" as="geometry" />
        </mxCell>
        <mxCell id="xpVKkxNU8PtLnsWlY8sR-214" value="" style="endArrow=none;html=1;rounded=0;exitX=0.5;exitY=1;exitDx=0;exitDy=0;entryX=0.25;entryY=0;entryDx=0;entryDy=0;" parent="1" source="xpVKkxNU8PtLnsWlY8sR-213" edge="1">
          <mxGeometry relative="1" as="geometry">
            <mxPoint x="-340" y="-790" as="sourcePoint" />
            <mxPoint x="-245" y="-690" as="targetPoint" />
            <Array as="points">
              <mxPoint x="-150" y="-780" />
              <mxPoint x="-245" y="-780" />
            </Array>
          </mxGeometry>
        </mxCell>
        <mxCell id="xpVKkxNU8PtLnsWlY8sR-216" value="SubscriptionDate" style="ellipse;whiteSpace=wrap;html=1;align=center;" parent="1" vertex="1">
          <mxGeometry x="-50" y="-400" width="100" height="40" as="geometry" />
        </mxCell>
        <mxCell id="xpVKkxNU8PtLnsWlY8sR-217" value="" style="endArrow=none;html=1;rounded=0;exitX=0.5;exitY=1;exitDx=0;exitDy=0;entryX=0.5;entryY=0;entryDx=0;entryDy=0;" parent="1" source="xpVKkxNU8PtLnsWlY8sR-33" target="xpVKkxNU8PtLnsWlY8sR-35" edge="1">
          <mxGeometry relative="1" as="geometry">
            <mxPoint x="-70" y="-340" as="sourcePoint" />
            <mxPoint x="90" y="-340" as="targetPoint" />
            <Array as="points">
              <mxPoint x="-110" y="-340" />
              <mxPoint y="-340" />
            </Array>
          </mxGeometry>
        </mxCell>
        <mxCell id="xpVKkxNU8PtLnsWlY8sR-218" value="" style="endArrow=none;html=1;rounded=0;entryX=0.5;entryY=1;entryDx=0;entryDy=0;exitX=0.5;exitY=0;exitDx=0;exitDy=0;" parent="1" source="xpVKkxNU8PtLnsWlY8sR-35" target="xpVKkxNU8PtLnsWlY8sR-34" edge="1">
          <mxGeometry relative="1" as="geometry">
            <mxPoint x="10" y="-340" as="sourcePoint" />
            <mxPoint x="170" y="-340" as="targetPoint" />
            <Array as="points">
              <mxPoint y="-340" />
              <mxPoint x="105" y="-340" />
            </Array>
          </mxGeometry>
        </mxCell>
        <mxCell id="xpVKkxNU8PtLnsWlY8sR-219" value="" style="endArrow=none;html=1;rounded=0;exitX=0.5;exitY=1;exitDx=0;exitDy=0;entryX=0.5;entryY=0;entryDx=0;entryDy=0;" parent="1" source="xpVKkxNU8PtLnsWlY8sR-216" target="xpVKkxNU8PtLnsWlY8sR-35" edge="1">
          <mxGeometry relative="1" as="geometry">
            <mxPoint x="-240" y="-330" as="sourcePoint" />
            <mxPoint x="-80" y="-330" as="targetPoint" />
          </mxGeometry>
        </mxCell>
        <mxCell id="xpVKkxNU8PtLnsWlY8sR-226" value="Name" style="ellipse;whiteSpace=wrap;html=1;align=center;" parent="1" vertex="1">
          <mxGeometry x="305" y="-750" width="100" height="40" as="geometry" />
        </mxCell>
        <mxCell id="xpVKkxNU8PtLnsWlY8sR-228" value="" style="endArrow=none;html=1;rounded=0;entryX=0.5;entryY=1;entryDx=0;entryDy=0;" parent="1" edge="1">
          <mxGeometry relative="1" as="geometry">
            <mxPoint x="250" y="-670" as="sourcePoint" />
            <mxPoint x="358" y="-710" as="targetPoint" />
            <Array as="points">
              <mxPoint x="250" y="-690" />
              <mxPoint x="325.5" y="-690" />
              <mxPoint x="358" y="-690" />
            </Array>
          </mxGeometry>
        </mxCell>
        <mxCell id="xpVKkxNU8PtLnsWlY8sR-229" value="" style="endArrow=none;html=1;rounded=0;exitX=0.5;exitY=1;exitDx=0;exitDy=0;entryX=0.5;entryY=0;entryDx=0;entryDy=0;" parent="1" edge="1">
          <mxGeometry relative="1" as="geometry">
            <mxPoint x="140" y="-710" as="sourcePoint" />
            <mxPoint x="250" y="-670" as="targetPoint" />
            <Array as="points">
              <mxPoint x="140" y="-690" />
              <mxPoint x="250" y="-690" />
            </Array>
          </mxGeometry>
        </mxCell>
        <mxCell id="xpVKkxNU8PtLnsWlY8sR-230" value="" style="endArrow=none;html=1;rounded=0;exitX=0.5;exitY=1;exitDx=0;exitDy=0;entryX=0.5;entryY=0;entryDx=0;entryDy=0;" parent="1" edge="1">
          <mxGeometry relative="1" as="geometry">
            <mxPoint x="249.54999999999995" y="-710" as="sourcePoint" />
            <mxPoint x="249.54999999999995" y="-670" as="targetPoint" />
          </mxGeometry>
        </mxCell>
        <mxCell id="xpVKkxNU8PtLnsWlY8sR-231" value="CreationDate" style="ellipse;whiteSpace=wrap;html=1;align=center;" parent="1" vertex="1">
          <mxGeometry x="200" y="-750" width="100" height="40" as="geometry" />
        </mxCell>
        <mxCell id="xpVKkxNU8PtLnsWlY8sR-232" value="PlaylistVideo" style="shape=associativeEntity;whiteSpace=wrap;html=1;align=center;" parent="1" vertex="1">
          <mxGeometry x="-40" y="-490" width="100" height="40" as="geometry" />
        </mxCell>
        <mxCell id="xpVKkxNU8PtLnsWlY8sR-242" value="Email" style="ellipse;whiteSpace=wrap;html=1;align=center;fontStyle=4;" parent="1" vertex="1">
          <mxGeometry x="-640" y="-770" width="100" height="40" as="geometry" />
        </mxCell>
        <mxCell id="xpVKkxNU8PtLnsWlY8sR-243" value="UserAccount" style="ellipse;whiteSpace=wrap;html=1;align=center;fontStyle=4;" parent="1" vertex="1">
          <mxGeometry x="-150" y="-570" width="100" height="40" as="geometry" />
        </mxCell>
        <mxCell id="xpVKkxNU8PtLnsWlY8sR-244" value="VideoOrder" style="ellipse;whiteSpace=wrap;html=1;align=center;" parent="1" vertex="1">
          <mxGeometry x="65" y="-570" width="100" height="40" as="geometry" />
        </mxCell>
        <mxCell id="xpVKkxNU8PtLnsWlY8sR-245" value="" style="endArrow=none;html=1;rounded=0;entryX=0.5;entryY=1;entryDx=0;entryDy=0;" parent="1" edge="1">
          <mxGeometry relative="1" as="geometry">
            <mxPoint x="10" y="-490" as="sourcePoint" />
            <mxPoint x="118" y="-530" as="targetPoint" />
            <Array as="points">
              <mxPoint x="10" y="-510" />
              <mxPoint x="85.5" y="-510" />
              <mxPoint x="118" y="-510" />
            </Array>
          </mxGeometry>
        </mxCell>
        <mxCell id="xpVKkxNU8PtLnsWlY8sR-246" value="" style="endArrow=none;html=1;rounded=0;exitX=0.5;exitY=1;exitDx=0;exitDy=0;entryX=0.5;entryY=0;entryDx=0;entryDy=0;" parent="1" edge="1">
          <mxGeometry relative="1" as="geometry">
            <mxPoint x="-100" y="-530" as="sourcePoint" />
            <mxPoint x="10" y="-490" as="targetPoint" />
            <Array as="points">
              <mxPoint x="-100" y="-510" />
              <mxPoint x="10" y="-510" />
            </Array>
          </mxGeometry>
        </mxCell>
        <mxCell id="xpVKkxNU8PtLnsWlY8sR-247" value="" style="endArrow=none;html=1;rounded=0;exitX=0.5;exitY=1;exitDx=0;exitDy=0;entryX=0.5;entryY=0;entryDx=0;entryDy=0;" parent="1" edge="1">
          <mxGeometry relative="1" as="geometry">
            <mxPoint x="9.549999999999955" y="-530" as="sourcePoint" />
            <mxPoint x="9.549999999999955" y="-490" as="targetPoint" />
          </mxGeometry>
        </mxCell>
        <mxCell id="xpVKkxNU8PtLnsWlY8sR-248" value="CreationDate" style="ellipse;whiteSpace=wrap;html=1;align=center;" parent="1" vertex="1">
          <mxGeometry x="-40" y="-570" width="100" height="40" as="geometry" />
        </mxCell>
        <mxCell id="xpVKkxNU8PtLnsWlY8sR-249" value="VideoURL" style="ellipse;whiteSpace=wrap;html=1;align=center;fontStyle=4;" parent="1" vertex="1">
          <mxGeometry x="-40" y="-570" width="100" height="40" as="geometry" />
        </mxCell>
        <mxCell id="xpVKkxNU8PtLnsWlY8sR-258" value="" style="endArrow=none;html=1;rounded=0;exitX=1;exitY=0.5;exitDx=0;exitDy=0;entryX=0;entryY=0.25;entryDx=0;entryDy=0;" parent="1" source="xpVKkxNU8PtLnsWlY8sR-43" target="QSHdrZAPcqocFxPk3kdq-1" edge="1">
          <mxGeometry relative="1" as="geometry">
            <mxPoint x="327.5" y="-855" as="sourcePoint" />
            <mxPoint x="-858.431396484375" y="-755" as="targetPoint" />
            <Array as="points">
              <mxPoint x="430" y="-650" />
              <mxPoint x="430" y="-855" />
              <mxPoint x="-600" y="-845" />
              <mxPoint x="-730" y="-845" />
              <mxPoint x="-730" y="-665" />
            </Array>
          </mxGeometry>
        </mxCell>
        <mxCell id="xpVKkxNU8PtLnsWlY8sR-259" value="Created" style="shape=rhombus;perimeter=rhombusPerimeter;whiteSpace=wrap;html=1;align=center;" parent="1" vertex="1">
          <mxGeometry x="10" y="-880" width="80" height="60" as="geometry" />
        </mxCell>
        <mxCell id="xpVKkxNU8PtLnsWlY8sR-260" value="&lt;font style=&quot;font-size: 48px;&quot;&gt;&lt;b&gt;YouTube&lt;/b&gt; Chen&#39;s Notation Diagram&lt;/font&gt;" style="text;html=1;align=center;verticalAlign=middle;resizable=0;points=[];autosize=1;strokeColor=none;fillColor=none;" parent="1" vertex="1">
          <mxGeometry x="-545" y="-1040" width="770" height="70" as="geometry" />
        </mxCell>
        <mxCell id="xpVKkxNU8PtLnsWlY8sR-261" value="UserAccount" style="shape=table;startSize=30;container=1;collapsible=1;childLayout=tableLayout;fixedRows=1;rowLines=0;fontStyle=1;align=center;resizeLast=1;html=1;" parent="1" vertex="1">
          <mxGeometry x="1230" y="-780" width="180" height="270" as="geometry" />
        </mxCell>
        <mxCell id="xpVKkxNU8PtLnsWlY8sR-262" value="" style="shape=tableRow;horizontal=0;startSize=0;swimlaneHead=0;swimlaneBody=0;fillColor=none;collapsible=0;dropTarget=0;points=[[0,0.5],[1,0.5]];portConstraint=eastwest;top=0;left=0;right=0;bottom=1;" parent="xpVKkxNU8PtLnsWlY8sR-261" vertex="1">
          <mxGeometry y="30" width="180" height="30" as="geometry" />
        </mxCell>
        <mxCell id="xpVKkxNU8PtLnsWlY8sR-263" value="PK text" style="shape=partialRectangle;connectable=0;fillColor=none;top=0;left=0;bottom=0;right=0;fontStyle=1;overflow=hidden;whiteSpace=wrap;html=1;" parent="xpVKkxNU8PtLnsWlY8sR-262" vertex="1">
          <mxGeometry width="50.000000000000455" height="30" as="geometry">
            <mxRectangle width="50.000000000000455" height="30" as="alternateBounds" />
          </mxGeometry>
        </mxCell>
        <mxCell id="xpVKkxNU8PtLnsWlY8sR-264" value="Email" style="shape=partialRectangle;connectable=0;fillColor=none;top=0;left=0;bottom=0;right=0;align=left;spacingLeft=6;fontStyle=5;overflow=hidden;whiteSpace=wrap;html=1;" parent="xpVKkxNU8PtLnsWlY8sR-262" vertex="1">
          <mxGeometry x="50.000000000000455" width="129.99999999999955" height="30" as="geometry">
            <mxRectangle width="129.99999999999955" height="30" as="alternateBounds" />
          </mxGeometry>
        </mxCell>
        <mxCell id="xpVKkxNU8PtLnsWlY8sR-265" value="" style="shape=tableRow;horizontal=0;startSize=0;swimlaneHead=0;swimlaneBody=0;fillColor=none;collapsible=0;dropTarget=0;points=[[0,0.5],[1,0.5]];portConstraint=eastwest;top=0;left=0;right=0;bottom=0;" parent="xpVKkxNU8PtLnsWlY8sR-261" vertex="1">
          <mxGeometry y="60" width="180" height="30" as="geometry" />
        </mxCell>
        <mxCell id="xpVKkxNU8PtLnsWlY8sR-266" value="text" style="shape=partialRectangle;connectable=0;fillColor=none;top=0;left=0;bottom=0;right=0;editable=1;overflow=hidden;whiteSpace=wrap;html=1;" parent="xpVKkxNU8PtLnsWlY8sR-265" vertex="1">
          <mxGeometry width="50.000000000000455" height="30" as="geometry">
            <mxRectangle width="50.000000000000455" height="30" as="alternateBounds" />
          </mxGeometry>
        </mxCell>
        <mxCell id="xpVKkxNU8PtLnsWlY8sR-267" value="Username" style="shape=partialRectangle;connectable=0;fillColor=none;top=0;left=0;bottom=0;right=0;align=left;spacingLeft=6;overflow=hidden;whiteSpace=wrap;html=1;" parent="xpVKkxNU8PtLnsWlY8sR-265" vertex="1">
          <mxGeometry x="50.000000000000455" width="129.99999999999955" height="30" as="geometry">
            <mxRectangle width="129.99999999999955" height="30" as="alternateBounds" />
          </mxGeometry>
        </mxCell>
        <mxCell id="xpVKkxNU8PtLnsWlY8sR-268" value="" style="shape=tableRow;horizontal=0;startSize=0;swimlaneHead=0;swimlaneBody=0;fillColor=none;collapsible=0;dropTarget=0;points=[[0,0.5],[1,0.5]];portConstraint=eastwest;top=0;left=0;right=0;bottom=0;" parent="xpVKkxNU8PtLnsWlY8sR-261" vertex="1">
          <mxGeometry y="90" width="180" height="30" as="geometry" />
        </mxCell>
        <mxCell id="xpVKkxNU8PtLnsWlY8sR-269" value="text" style="shape=partialRectangle;connectable=0;fillColor=none;top=0;left=0;bottom=0;right=0;editable=1;overflow=hidden;whiteSpace=wrap;html=1;" parent="xpVKkxNU8PtLnsWlY8sR-268" vertex="1">
          <mxGeometry width="50.000000000000455" height="30" as="geometry">
            <mxRectangle width="50.000000000000455" height="30" as="alternateBounds" />
          </mxGeometry>
        </mxCell>
        <mxCell id="xpVKkxNU8PtLnsWlY8sR-270" value="Password" style="shape=partialRectangle;connectable=0;fillColor=none;top=0;left=0;bottom=0;right=0;align=left;spacingLeft=6;overflow=hidden;whiteSpace=wrap;html=1;" parent="xpVKkxNU8PtLnsWlY8sR-268" vertex="1">
          <mxGeometry x="50.000000000000455" width="129.99999999999955" height="30" as="geometry">
            <mxRectangle width="129.99999999999955" height="30" as="alternateBounds" />
          </mxGeometry>
        </mxCell>
        <mxCell id="xpVKkxNU8PtLnsWlY8sR-271" value="" style="shape=tableRow;horizontal=0;startSize=0;swimlaneHead=0;swimlaneBody=0;fillColor=none;collapsible=0;dropTarget=0;points=[[0,0.5],[1,0.5]];portConstraint=eastwest;top=0;left=0;right=0;bottom=0;" parent="xpVKkxNU8PtLnsWlY8sR-261" vertex="1">
          <mxGeometry y="120" width="180" height="30" as="geometry" />
        </mxCell>
        <mxCell id="xpVKkxNU8PtLnsWlY8sR-272" value="text" style="shape=partialRectangle;connectable=0;fillColor=none;top=0;left=0;bottom=0;right=0;editable=1;overflow=hidden;whiteSpace=wrap;html=1;" parent="xpVKkxNU8PtLnsWlY8sR-271" vertex="1">
          <mxGeometry width="50.000000000000455" height="30" as="geometry">
            <mxRectangle width="50.000000000000455" height="30" as="alternateBounds" />
          </mxGeometry>
        </mxCell>
        <mxCell id="xpVKkxNU8PtLnsWlY8sR-273" value="FirstName" style="shape=partialRectangle;connectable=0;fillColor=none;top=0;left=0;bottom=0;right=0;align=left;spacingLeft=6;overflow=hidden;whiteSpace=wrap;html=1;" parent="xpVKkxNU8PtLnsWlY8sR-271" vertex="1">
          <mxGeometry x="50.000000000000455" width="129.99999999999955" height="30" as="geometry">
            <mxRectangle width="129.99999999999955" height="30" as="alternateBounds" />
          </mxGeometry>
        </mxCell>
        <mxCell id="xpVKkxNU8PtLnsWlY8sR-274" value="" style="shape=tableRow;horizontal=0;startSize=0;swimlaneHead=0;swimlaneBody=0;fillColor=none;collapsible=0;dropTarget=0;points=[[0,0.5],[1,0.5]];portConstraint=eastwest;top=0;left=0;right=0;bottom=0;" parent="xpVKkxNU8PtLnsWlY8sR-261" vertex="1">
          <mxGeometry y="150" width="180" height="30" as="geometry" />
        </mxCell>
        <mxCell id="xpVKkxNU8PtLnsWlY8sR-275" value="text" style="shape=partialRectangle;connectable=0;fillColor=none;top=0;left=0;bottom=0;right=0;editable=1;overflow=hidden;whiteSpace=wrap;html=1;" parent="xpVKkxNU8PtLnsWlY8sR-274" vertex="1">
          <mxGeometry width="50.000000000000455" height="30" as="geometry">
            <mxRectangle width="50.000000000000455" height="30" as="alternateBounds" />
          </mxGeometry>
        </mxCell>
        <mxCell id="xpVKkxNU8PtLnsWlY8sR-276" value="LastName" style="shape=partialRectangle;connectable=0;fillColor=none;top=0;left=0;bottom=0;right=0;align=left;spacingLeft=6;overflow=hidden;whiteSpace=wrap;html=1;" parent="xpVKkxNU8PtLnsWlY8sR-274" vertex="1">
          <mxGeometry x="50.000000000000455" width="129.99999999999955" height="30" as="geometry">
            <mxRectangle width="129.99999999999955" height="30" as="alternateBounds" />
          </mxGeometry>
        </mxCell>
        <mxCell id="xpVKkxNU8PtLnsWlY8sR-277" value="" style="shape=tableRow;horizontal=0;startSize=0;swimlaneHead=0;swimlaneBody=0;fillColor=none;collapsible=0;dropTarget=0;points=[[0,0.5],[1,0.5]];portConstraint=eastwest;top=0;left=0;right=0;bottom=0;" parent="xpVKkxNU8PtLnsWlY8sR-261" vertex="1">
          <mxGeometry y="180" width="180" height="30" as="geometry" />
        </mxCell>
        <mxCell id="xpVKkxNU8PtLnsWlY8sR-278" value="date" style="shape=partialRectangle;connectable=0;fillColor=none;top=0;left=0;bottom=0;right=0;editable=1;overflow=hidden;whiteSpace=wrap;html=1;" parent="xpVKkxNU8PtLnsWlY8sR-277" vertex="1">
          <mxGeometry width="50.000000000000455" height="30" as="geometry">
            <mxRectangle width="50.000000000000455" height="30" as="alternateBounds" />
          </mxGeometry>
        </mxCell>
        <mxCell id="xpVKkxNU8PtLnsWlY8sR-279" value="DateOfCreation" style="shape=partialRectangle;connectable=0;fillColor=none;top=0;left=0;bottom=0;right=0;align=left;spacingLeft=6;overflow=hidden;whiteSpace=wrap;html=1;" parent="xpVKkxNU8PtLnsWlY8sR-277" vertex="1">
          <mxGeometry x="50.000000000000455" width="129.99999999999955" height="30" as="geometry">
            <mxRectangle width="129.99999999999955" height="30" as="alternateBounds" />
          </mxGeometry>
        </mxCell>
        <mxCell id="QSHdrZAPcqocFxPk3kdq-2" value="" style="shape=tableRow;horizontal=0;startSize=0;swimlaneHead=0;swimlaneBody=0;fillColor=none;collapsible=0;dropTarget=0;points=[[0,0.5],[1,0.5]];portConstraint=eastwest;top=0;left=0;right=0;bottom=0;" parent="xpVKkxNU8PtLnsWlY8sR-261" vertex="1">
          <mxGeometry y="210" width="180" height="30" as="geometry" />
        </mxCell>
        <mxCell id="QSHdrZAPcqocFxPk3kdq-3" value="int" style="shape=partialRectangle;connectable=0;fillColor=none;top=0;left=0;bottom=0;right=0;editable=1;overflow=hidden;whiteSpace=wrap;html=1;" parent="QSHdrZAPcqocFxPk3kdq-2" vertex="1">
          <mxGeometry width="50.000000000000455" height="30" as="geometry">
            <mxRectangle width="50.000000000000455" height="30" as="alternateBounds" />
          </mxGeometry>
        </mxCell>
        <mxCell id="QSHdrZAPcqocFxPk3kdq-4" value="PhoneNumber" style="shape=partialRectangle;connectable=0;fillColor=none;top=0;left=0;bottom=0;right=0;align=left;spacingLeft=6;overflow=hidden;whiteSpace=wrap;html=1;" parent="QSHdrZAPcqocFxPk3kdq-2" vertex="1">
          <mxGeometry x="50.000000000000455" width="129.99999999999955" height="30" as="geometry">
            <mxRectangle width="129.99999999999955" height="30" as="alternateBounds" />
          </mxGeometry>
        </mxCell>
        <mxCell id="QSHdrZAPcqocFxPk3kdq-5" value="" style="shape=tableRow;horizontal=0;startSize=0;swimlaneHead=0;swimlaneBody=0;fillColor=none;collapsible=0;dropTarget=0;points=[[0,0.5],[1,0.5]];portConstraint=eastwest;top=0;left=0;right=0;bottom=0;" parent="xpVKkxNU8PtLnsWlY8sR-261" vertex="1">
          <mxGeometry y="240" width="180" height="30" as="geometry" />
        </mxCell>
        <mxCell id="QSHdrZAPcqocFxPk3kdq-6" value="int" style="shape=partialRectangle;connectable=0;fillColor=none;top=0;left=0;bottom=0;right=0;editable=1;overflow=hidden;whiteSpace=wrap;html=1;" parent="QSHdrZAPcqocFxPk3kdq-5" vertex="1">
          <mxGeometry width="50.000000000000455" height="30" as="geometry">
            <mxRectangle width="50.000000000000455" height="30" as="alternateBounds" />
          </mxGeometry>
        </mxCell>
        <mxCell id="QSHdrZAPcqocFxPk3kdq-7" value="Subscribers" style="shape=partialRectangle;connectable=0;fillColor=none;top=0;left=0;bottom=0;right=0;align=left;spacingLeft=6;overflow=hidden;whiteSpace=wrap;html=1;" parent="QSHdrZAPcqocFxPk3kdq-5" vertex="1">
          <mxGeometry x="50.000000000000455" width="129.99999999999955" height="30" as="geometry">
            <mxRectangle width="129.99999999999955" height="30" as="alternateBounds" />
          </mxGeometry>
        </mxCell>
        <mxCell id="xpVKkxNU8PtLnsWlY8sR-280" value="Video" style="shape=table;startSize=30;container=1;collapsible=1;childLayout=tableLayout;fixedRows=1;rowLines=0;fontStyle=1;align=center;resizeLast=1;html=1;" parent="1" vertex="1">
          <mxGeometry x="1630" y="-780" width="180" height="240.0000000000001" as="geometry" />
        </mxCell>
        <mxCell id="xpVKkxNU8PtLnsWlY8sR-281" value="" style="shape=tableRow;horizontal=0;startSize=0;swimlaneHead=0;swimlaneBody=0;fillColor=none;collapsible=0;dropTarget=0;points=[[0,0.5],[1,0.5]];portConstraint=eastwest;top=0;left=0;right=0;bottom=1;" parent="xpVKkxNU8PtLnsWlY8sR-280" vertex="1">
          <mxGeometry y="30" width="180" height="30" as="geometry" />
        </mxCell>
        <mxCell id="xpVKkxNU8PtLnsWlY8sR-282" value="PK text" style="shape=partialRectangle;connectable=0;fillColor=none;top=0;left=0;bottom=0;right=0;fontStyle=1;overflow=hidden;whiteSpace=wrap;html=1;" parent="xpVKkxNU8PtLnsWlY8sR-281" vertex="1">
          <mxGeometry width="60.000000000000455" height="30" as="geometry">
            <mxRectangle width="60.000000000000455" height="30" as="alternateBounds" />
          </mxGeometry>
        </mxCell>
        <mxCell id="xpVKkxNU8PtLnsWlY8sR-283" value="URL" style="shape=partialRectangle;connectable=0;fillColor=none;top=0;left=0;bottom=0;right=0;align=left;spacingLeft=6;fontStyle=5;overflow=hidden;whiteSpace=wrap;html=1;" parent="xpVKkxNU8PtLnsWlY8sR-281" vertex="1">
          <mxGeometry x="60.000000000000455" width="119.99999999999955" height="30" as="geometry">
            <mxRectangle width="119.99999999999955" height="30" as="alternateBounds" />
          </mxGeometry>
        </mxCell>
        <mxCell id="xpVKkxNU8PtLnsWlY8sR-461" value="" style="shape=tableRow;horizontal=0;startSize=0;swimlaneHead=0;swimlaneBody=0;fillColor=none;collapsible=0;dropTarget=0;points=[[0,0.5],[1,0.5]];portConstraint=eastwest;top=0;left=0;right=0;bottom=1;" parent="xpVKkxNU8PtLnsWlY8sR-280" vertex="1">
          <mxGeometry y="60" width="180" height="30" as="geometry" />
        </mxCell>
        <mxCell id="xpVKkxNU8PtLnsWlY8sR-462" value="FK text" style="shape=partialRectangle;connectable=0;fillColor=none;top=0;left=0;bottom=0;right=0;fontStyle=1;overflow=hidden;whiteSpace=wrap;html=1;" parent="xpVKkxNU8PtLnsWlY8sR-461" vertex="1">
          <mxGeometry width="60.000000000000455" height="30" as="geometry">
            <mxRectangle width="60.000000000000455" height="30" as="alternateBounds" />
          </mxGeometry>
        </mxCell>
        <mxCell id="xpVKkxNU8PtLnsWlY8sR-463" value="Email" style="shape=partialRectangle;connectable=0;fillColor=none;top=0;left=0;bottom=0;right=0;align=left;spacingLeft=6;fontStyle=5;overflow=hidden;whiteSpace=wrap;html=1;" parent="xpVKkxNU8PtLnsWlY8sR-461" vertex="1">
          <mxGeometry x="60.000000000000455" width="119.99999999999955" height="30" as="geometry">
            <mxRectangle width="119.99999999999955" height="30" as="alternateBounds" />
          </mxGeometry>
        </mxCell>
        <mxCell id="xpVKkxNU8PtLnsWlY8sR-465" value="" style="shape=tableRow;horizontal=0;startSize=0;swimlaneHead=0;swimlaneBody=0;fillColor=none;collapsible=0;dropTarget=0;points=[[0,0.5],[1,0.5]];portConstraint=eastwest;top=0;left=0;right=0;bottom=1;" parent="xpVKkxNU8PtLnsWlY8sR-280" vertex="1">
          <mxGeometry y="90" width="180" height="30" as="geometry" />
        </mxCell>
        <mxCell id="xpVKkxNU8PtLnsWlY8sR-466" value="FK text" style="shape=partialRectangle;connectable=0;fillColor=none;top=0;left=0;bottom=0;right=0;fontStyle=1;overflow=hidden;whiteSpace=wrap;html=1;" parent="xpVKkxNU8PtLnsWlY8sR-465" vertex="1">
          <mxGeometry width="60.000000000000455" height="30" as="geometry">
            <mxRectangle width="60.000000000000455" height="30" as="alternateBounds" />
          </mxGeometry>
        </mxCell>
        <mxCell id="xpVKkxNU8PtLnsWlY8sR-467" value="Genre" style="shape=partialRectangle;connectable=0;fillColor=none;top=0;left=0;bottom=0;right=0;align=left;spacingLeft=6;fontStyle=5;overflow=hidden;whiteSpace=wrap;html=1;" parent="xpVKkxNU8PtLnsWlY8sR-465" vertex="1">
          <mxGeometry x="60.000000000000455" width="119.99999999999955" height="30" as="geometry">
            <mxRectangle width="119.99999999999955" height="30" as="alternateBounds" />
          </mxGeometry>
        </mxCell>
        <mxCell id="xpVKkxNU8PtLnsWlY8sR-284" value="" style="shape=tableRow;horizontal=0;startSize=0;swimlaneHead=0;swimlaneBody=0;fillColor=none;collapsible=0;dropTarget=0;points=[[0,0.5],[1,0.5]];portConstraint=eastwest;top=0;left=0;right=0;bottom=0;" parent="xpVKkxNU8PtLnsWlY8sR-280" vertex="1">
          <mxGeometry y="120" width="180" height="30" as="geometry" />
        </mxCell>
        <mxCell id="xpVKkxNU8PtLnsWlY8sR-285" value="text" style="shape=partialRectangle;connectable=0;fillColor=none;top=0;left=0;bottom=0;right=0;editable=1;overflow=hidden;whiteSpace=wrap;html=1;" parent="xpVKkxNU8PtLnsWlY8sR-284" vertex="1">
          <mxGeometry width="60.000000000000455" height="30" as="geometry">
            <mxRectangle width="60.000000000000455" height="30" as="alternateBounds" />
          </mxGeometry>
        </mxCell>
        <mxCell id="xpVKkxNU8PtLnsWlY8sR-286" value="Title" style="shape=partialRectangle;connectable=0;fillColor=none;top=0;left=0;bottom=0;right=0;align=left;spacingLeft=6;overflow=hidden;whiteSpace=wrap;html=1;" parent="xpVKkxNU8PtLnsWlY8sR-284" vertex="1">
          <mxGeometry x="60.000000000000455" width="119.99999999999955" height="30" as="geometry">
            <mxRectangle width="119.99999999999955" height="30" as="alternateBounds" />
          </mxGeometry>
        </mxCell>
        <mxCell id="xpVKkxNU8PtLnsWlY8sR-287" value="" style="shape=tableRow;horizontal=0;startSize=0;swimlaneHead=0;swimlaneBody=0;fillColor=none;collapsible=0;dropTarget=0;points=[[0,0.5],[1,0.5]];portConstraint=eastwest;top=0;left=0;right=0;bottom=0;" parent="xpVKkxNU8PtLnsWlY8sR-280" vertex="1">
          <mxGeometry y="150" width="180" height="30" as="geometry" />
        </mxCell>
        <mxCell id="xpVKkxNU8PtLnsWlY8sR-288" value="date" style="shape=partialRectangle;connectable=0;fillColor=none;top=0;left=0;bottom=0;right=0;editable=1;overflow=hidden;whiteSpace=wrap;html=1;" parent="xpVKkxNU8PtLnsWlY8sR-287" vertex="1">
          <mxGeometry width="60.000000000000455" height="30" as="geometry">
            <mxRectangle width="60.000000000000455" height="30" as="alternateBounds" />
          </mxGeometry>
        </mxCell>
        <mxCell id="xpVKkxNU8PtLnsWlY8sR-289" value="Published" style="shape=partialRectangle;connectable=0;fillColor=none;top=0;left=0;bottom=0;right=0;align=left;spacingLeft=6;overflow=hidden;whiteSpace=wrap;html=1;" parent="xpVKkxNU8PtLnsWlY8sR-287" vertex="1">
          <mxGeometry x="60.000000000000455" width="119.99999999999955" height="30" as="geometry">
            <mxRectangle width="119.99999999999955" height="30" as="alternateBounds" />
          </mxGeometry>
        </mxCell>
        <mxCell id="xpVKkxNU8PtLnsWlY8sR-290" value="" style="shape=tableRow;horizontal=0;startSize=0;swimlaneHead=0;swimlaneBody=0;fillColor=none;collapsible=0;dropTarget=0;points=[[0,0.5],[1,0.5]];portConstraint=eastwest;top=0;left=0;right=0;bottom=0;" parent="xpVKkxNU8PtLnsWlY8sR-280" vertex="1">
          <mxGeometry y="180" width="180" height="30" as="geometry" />
        </mxCell>
        <mxCell id="xpVKkxNU8PtLnsWlY8sR-291" value="double" style="shape=partialRectangle;connectable=0;fillColor=none;top=0;left=0;bottom=0;right=0;editable=1;overflow=hidden;whiteSpace=wrap;html=1;" parent="xpVKkxNU8PtLnsWlY8sR-290" vertex="1">
          <mxGeometry width="60.000000000000455" height="30" as="geometry">
            <mxRectangle width="60.000000000000455" height="30" as="alternateBounds" />
          </mxGeometry>
        </mxCell>
        <mxCell id="xpVKkxNU8PtLnsWlY8sR-292" value="Duration" style="shape=partialRectangle;connectable=0;fillColor=none;top=0;left=0;bottom=0;right=0;align=left;spacingLeft=6;overflow=hidden;whiteSpace=wrap;html=1;" parent="xpVKkxNU8PtLnsWlY8sR-290" vertex="1">
          <mxGeometry x="60.000000000000455" width="119.99999999999955" height="30" as="geometry">
            <mxRectangle width="119.99999999999955" height="30" as="alternateBounds" />
          </mxGeometry>
        </mxCell>
        <mxCell id="xpVKkxNU8PtLnsWlY8sR-293" value="" style="shape=tableRow;horizontal=0;startSize=0;swimlaneHead=0;swimlaneBody=0;fillColor=none;collapsible=0;dropTarget=0;points=[[0,0.5],[1,0.5]];portConstraint=eastwest;top=0;left=0;right=0;bottom=0;" parent="xpVKkxNU8PtLnsWlY8sR-280" vertex="1">
          <mxGeometry y="210" width="180" height="30" as="geometry" />
        </mxCell>
        <mxCell id="xpVKkxNU8PtLnsWlY8sR-294" value="text" style="shape=partialRectangle;connectable=0;fillColor=none;top=0;left=0;bottom=0;right=0;editable=1;overflow=hidden;whiteSpace=wrap;html=1;" parent="xpVKkxNU8PtLnsWlY8sR-293" vertex="1">
          <mxGeometry width="60.000000000000455" height="30" as="geometry">
            <mxRectangle width="60.000000000000455" height="30" as="alternateBounds" />
          </mxGeometry>
        </mxCell>
        <mxCell id="xpVKkxNU8PtLnsWlY8sR-295" value="Description" style="shape=partialRectangle;connectable=0;fillColor=none;top=0;left=0;bottom=0;right=0;align=left;spacingLeft=6;overflow=hidden;whiteSpace=wrap;html=1;" parent="xpVKkxNU8PtLnsWlY8sR-293" vertex="1">
          <mxGeometry x="60.000000000000455" width="119.99999999999955" height="30" as="geometry">
            <mxRectangle width="119.99999999999955" height="30" as="alternateBounds" />
          </mxGeometry>
        </mxCell>
        <mxCell id="xpVKkxNU8PtLnsWlY8sR-299" value="Category" style="shape=table;startSize=30;container=1;collapsible=1;childLayout=tableLayout;fixedRows=1;rowLines=0;fontStyle=1;align=center;resizeLast=1;html=1;" parent="1" vertex="1">
          <mxGeometry x="1990" y="-780" width="180" height="90" as="geometry" />
        </mxCell>
        <mxCell id="xpVKkxNU8PtLnsWlY8sR-300" value="" style="shape=tableRow;horizontal=0;startSize=0;swimlaneHead=0;swimlaneBody=0;fillColor=none;collapsible=0;dropTarget=0;points=[[0,0.5],[1,0.5]];portConstraint=eastwest;top=0;left=0;right=0;bottom=1;" parent="xpVKkxNU8PtLnsWlY8sR-299" vertex="1">
          <mxGeometry y="30" width="180" height="30" as="geometry" />
        </mxCell>
        <mxCell id="xpVKkxNU8PtLnsWlY8sR-301" value="PK text" style="shape=partialRectangle;connectable=0;fillColor=none;top=0;left=0;bottom=0;right=0;fontStyle=1;overflow=hidden;whiteSpace=wrap;html=1;" parent="xpVKkxNU8PtLnsWlY8sR-300" vertex="1">
          <mxGeometry width="60.000000000000455" height="30" as="geometry">
            <mxRectangle width="60.000000000000455" height="30" as="alternateBounds" />
          </mxGeometry>
        </mxCell>
        <mxCell id="xpVKkxNU8PtLnsWlY8sR-302" value="Genre" style="shape=partialRectangle;connectable=0;fillColor=none;top=0;left=0;bottom=0;right=0;align=left;spacingLeft=6;fontStyle=5;overflow=hidden;whiteSpace=wrap;html=1;" parent="xpVKkxNU8PtLnsWlY8sR-300" vertex="1">
          <mxGeometry x="60.000000000000455" width="119.99999999999955" height="30" as="geometry">
            <mxRectangle width="119.99999999999955" height="30" as="alternateBounds" />
          </mxGeometry>
        </mxCell>
        <mxCell id="xpVKkxNU8PtLnsWlY8sR-303" value="" style="shape=tableRow;horizontal=0;startSize=0;swimlaneHead=0;swimlaneBody=0;fillColor=none;collapsible=0;dropTarget=0;points=[[0,0.5],[1,0.5]];portConstraint=eastwest;top=0;left=0;right=0;bottom=0;" parent="xpVKkxNU8PtLnsWlY8sR-299" vertex="1">
          <mxGeometry y="60" width="180" height="30" as="geometry" />
        </mxCell>
        <mxCell id="xpVKkxNU8PtLnsWlY8sR-304" value="text" style="shape=partialRectangle;connectable=0;fillColor=none;top=0;left=0;bottom=0;right=0;editable=1;overflow=hidden;whiteSpace=wrap;html=1;" parent="xpVKkxNU8PtLnsWlY8sR-303" vertex="1">
          <mxGeometry width="60.000000000000455" height="30" as="geometry">
            <mxRectangle width="60.000000000000455" height="30" as="alternateBounds" />
          </mxGeometry>
        </mxCell>
        <mxCell id="xpVKkxNU8PtLnsWlY8sR-305" value="Description" style="shape=partialRectangle;connectable=0;fillColor=none;top=0;left=0;bottom=0;right=0;align=left;spacingLeft=6;overflow=hidden;whiteSpace=wrap;html=1;" parent="xpVKkxNU8PtLnsWlY8sR-303" vertex="1">
          <mxGeometry x="60.000000000000455" width="119.99999999999955" height="30" as="geometry">
            <mxRectangle width="119.99999999999955" height="30" as="alternateBounds" />
          </mxGeometry>
        </mxCell>
        <mxCell id="xpVKkxNU8PtLnsWlY8sR-321" value="Comment" style="shape=table;startSize=30;container=1;collapsible=1;childLayout=tableLayout;fixedRows=1;rowLines=0;fontStyle=1;align=center;resizeLast=1;html=1;" parent="1" vertex="1">
          <mxGeometry x="1230" y="-440" width="180" height="150" as="geometry" />
        </mxCell>
        <mxCell id="xpVKkxNU8PtLnsWlY8sR-322" value="" style="shape=tableRow;horizontal=0;startSize=0;swimlaneHead=0;swimlaneBody=0;fillColor=none;collapsible=0;dropTarget=0;points=[[0,0.5],[1,0.5]];portConstraint=eastwest;top=0;left=0;right=0;bottom=1;" parent="xpVKkxNU8PtLnsWlY8sR-321" vertex="1">
          <mxGeometry y="30" width="180" height="30" as="geometry" />
        </mxCell>
        <mxCell id="xpVKkxNU8PtLnsWlY8sR-323" value="PK FK text" style="shape=partialRectangle;connectable=0;fillColor=none;top=0;left=0;bottom=0;right=0;fontStyle=1;overflow=hidden;whiteSpace=wrap;html=1;" parent="xpVKkxNU8PtLnsWlY8sR-322" vertex="1">
          <mxGeometry width="50" height="30" as="geometry">
            <mxRectangle width="50" height="30" as="alternateBounds" />
          </mxGeometry>
        </mxCell>
        <mxCell id="xpVKkxNU8PtLnsWlY8sR-324" value="URL" style="shape=partialRectangle;connectable=0;fillColor=none;top=0;left=0;bottom=0;right=0;align=left;spacingLeft=6;fontStyle=5;overflow=hidden;whiteSpace=wrap;html=1;" parent="xpVKkxNU8PtLnsWlY8sR-322" vertex="1">
          <mxGeometry x="50" width="130" height="30" as="geometry">
            <mxRectangle width="130" height="30" as="alternateBounds" />
          </mxGeometry>
        </mxCell>
        <mxCell id="xpVKkxNU8PtLnsWlY8sR-388" value="" style="shape=tableRow;horizontal=0;startSize=0;swimlaneHead=0;swimlaneBody=0;fillColor=none;collapsible=0;dropTarget=0;points=[[0,0.5],[1,0.5]];portConstraint=eastwest;top=0;left=0;right=0;bottom=1;" parent="xpVKkxNU8PtLnsWlY8sR-321" vertex="1">
          <mxGeometry y="60" width="180" height="30" as="geometry" />
        </mxCell>
        <mxCell id="xpVKkxNU8PtLnsWlY8sR-389" value="PK FK text" style="shape=partialRectangle;connectable=0;fillColor=none;top=0;left=0;bottom=0;right=0;fontStyle=1;overflow=hidden;whiteSpace=wrap;html=1;" parent="xpVKkxNU8PtLnsWlY8sR-388" vertex="1">
          <mxGeometry width="50" height="30" as="geometry">
            <mxRectangle width="50" height="30" as="alternateBounds" />
          </mxGeometry>
        </mxCell>
        <mxCell id="xpVKkxNU8PtLnsWlY8sR-390" value="Email" style="shape=partialRectangle;connectable=0;fillColor=none;top=0;left=0;bottom=0;right=0;align=left;spacingLeft=6;fontStyle=5;overflow=hidden;whiteSpace=wrap;html=1;" parent="xpVKkxNU8PtLnsWlY8sR-388" vertex="1">
          <mxGeometry x="50" width="130" height="30" as="geometry">
            <mxRectangle width="130" height="30" as="alternateBounds" />
          </mxGeometry>
        </mxCell>
        <mxCell id="xpVKkxNU8PtLnsWlY8sR-325" value="" style="shape=tableRow;horizontal=0;startSize=0;swimlaneHead=0;swimlaneBody=0;fillColor=none;collapsible=0;dropTarget=0;points=[[0,0.5],[1,0.5]];portConstraint=eastwest;top=0;left=0;right=0;bottom=0;" parent="xpVKkxNU8PtLnsWlY8sR-321" vertex="1">
          <mxGeometry y="90" width="180" height="30" as="geometry" />
        </mxCell>
        <mxCell id="xpVKkxNU8PtLnsWlY8sR-326" value="text" style="shape=partialRectangle;connectable=0;fillColor=none;top=0;left=0;bottom=0;right=0;editable=1;overflow=hidden;whiteSpace=wrap;html=1;" parent="xpVKkxNU8PtLnsWlY8sR-325" vertex="1">
          <mxGeometry width="50" height="30" as="geometry">
            <mxRectangle width="50" height="30" as="alternateBounds" />
          </mxGeometry>
        </mxCell>
        <mxCell id="xpVKkxNU8PtLnsWlY8sR-327" value="CommentText" style="shape=partialRectangle;connectable=0;fillColor=none;top=0;left=0;bottom=0;right=0;align=left;spacingLeft=6;overflow=hidden;whiteSpace=wrap;html=1;" parent="xpVKkxNU8PtLnsWlY8sR-325" vertex="1">
          <mxGeometry x="50" width="130" height="30" as="geometry">
            <mxRectangle width="130" height="30" as="alternateBounds" />
          </mxGeometry>
        </mxCell>
        <mxCell id="xpVKkxNU8PtLnsWlY8sR-328" value="" style="shape=tableRow;horizontal=0;startSize=0;swimlaneHead=0;swimlaneBody=0;fillColor=none;collapsible=0;dropTarget=0;points=[[0,0.5],[1,0.5]];portConstraint=eastwest;top=0;left=0;right=0;bottom=0;" parent="xpVKkxNU8PtLnsWlY8sR-321" vertex="1">
          <mxGeometry y="120" width="180" height="30" as="geometry" />
        </mxCell>
        <mxCell id="xpVKkxNU8PtLnsWlY8sR-329" value="date" style="shape=partialRectangle;connectable=0;fillColor=none;top=0;left=0;bottom=0;right=0;editable=1;overflow=hidden;whiteSpace=wrap;html=1;" parent="xpVKkxNU8PtLnsWlY8sR-328" vertex="1">
          <mxGeometry width="50" height="30" as="geometry">
            <mxRectangle width="50" height="30" as="alternateBounds" />
          </mxGeometry>
        </mxCell>
        <mxCell id="xpVKkxNU8PtLnsWlY8sR-330" value="CommentDate" style="shape=partialRectangle;connectable=0;fillColor=none;top=0;left=0;bottom=0;right=0;align=left;spacingLeft=6;overflow=hidden;whiteSpace=wrap;html=1;" parent="xpVKkxNU8PtLnsWlY8sR-328" vertex="1">
          <mxGeometry x="50" width="130" height="30" as="geometry">
            <mxRectangle width="130" height="30" as="alternateBounds" />
          </mxGeometry>
        </mxCell>
        <mxCell id="xpVKkxNU8PtLnsWlY8sR-347" value="Subscription" style="shape=table;startSize=30;container=1;collapsible=1;childLayout=tableLayout;fixedRows=1;rowLines=0;fontStyle=1;align=center;resizeLast=1;html=1;" parent="1" vertex="1">
          <mxGeometry x="950" y="-780" width="180" height="120" as="geometry" />
        </mxCell>
        <mxCell id="xpVKkxNU8PtLnsWlY8sR-348" value="" style="shape=tableRow;horizontal=0;startSize=0;swimlaneHead=0;swimlaneBody=0;fillColor=none;collapsible=0;dropTarget=0;points=[[0,0.5],[1,0.5]];portConstraint=eastwest;top=0;left=0;right=0;bottom=1;" parent="xpVKkxNU8PtLnsWlY8sR-347" vertex="1">
          <mxGeometry y="30" width="180" height="30" as="geometry" />
        </mxCell>
        <mxCell id="xpVKkxNU8PtLnsWlY8sR-349" value="PK FK&lt;br&gt;text" style="shape=partialRectangle;connectable=0;fillColor=none;top=0;left=0;bottom=0;right=0;fontStyle=1;overflow=hidden;whiteSpace=wrap;html=1;" parent="xpVKkxNU8PtLnsWlY8sR-348" vertex="1">
          <mxGeometry width="50" height="30" as="geometry">
            <mxRectangle width="50" height="30" as="alternateBounds" />
          </mxGeometry>
        </mxCell>
        <mxCell id="xpVKkxNU8PtLnsWlY8sR-350" value="FromEmail" style="shape=partialRectangle;connectable=0;fillColor=none;top=0;left=0;bottom=0;right=0;align=left;spacingLeft=6;fontStyle=5;overflow=hidden;whiteSpace=wrap;html=1;" parent="xpVKkxNU8PtLnsWlY8sR-348" vertex="1">
          <mxGeometry x="50" width="130" height="30" as="geometry">
            <mxRectangle width="130" height="30" as="alternateBounds" />
          </mxGeometry>
        </mxCell>
        <mxCell id="xpVKkxNU8PtLnsWlY8sR-407" value="" style="shape=tableRow;horizontal=0;startSize=0;swimlaneHead=0;swimlaneBody=0;fillColor=none;collapsible=0;dropTarget=0;points=[[0,0.5],[1,0.5]];portConstraint=eastwest;top=0;left=0;right=0;bottom=1;" parent="xpVKkxNU8PtLnsWlY8sR-347" vertex="1">
          <mxGeometry y="60" width="180" height="30" as="geometry" />
        </mxCell>
        <mxCell id="xpVKkxNU8PtLnsWlY8sR-408" value="PK FK&lt;br&gt;text" style="shape=partialRectangle;connectable=0;fillColor=none;top=0;left=0;bottom=0;right=0;fontStyle=1;overflow=hidden;whiteSpace=wrap;html=1;" parent="xpVKkxNU8PtLnsWlY8sR-407" vertex="1">
          <mxGeometry width="50" height="30" as="geometry">
            <mxRectangle width="50" height="30" as="alternateBounds" />
          </mxGeometry>
        </mxCell>
        <mxCell id="xpVKkxNU8PtLnsWlY8sR-409" value="ToEmail" style="shape=partialRectangle;connectable=0;fillColor=none;top=0;left=0;bottom=0;right=0;align=left;spacingLeft=6;fontStyle=5;overflow=hidden;whiteSpace=wrap;html=1;" parent="xpVKkxNU8PtLnsWlY8sR-407" vertex="1">
          <mxGeometry x="50" width="130" height="30" as="geometry">
            <mxRectangle width="130" height="30" as="alternateBounds" />
          </mxGeometry>
        </mxCell>
        <mxCell id="xpVKkxNU8PtLnsWlY8sR-351" value="" style="shape=tableRow;horizontal=0;startSize=0;swimlaneHead=0;swimlaneBody=0;fillColor=none;collapsible=0;dropTarget=0;points=[[0,0.5],[1,0.5]];portConstraint=eastwest;top=0;left=0;right=0;bottom=0;" parent="xpVKkxNU8PtLnsWlY8sR-347" vertex="1">
          <mxGeometry y="90" width="180" height="30" as="geometry" />
        </mxCell>
        <mxCell id="xpVKkxNU8PtLnsWlY8sR-352" value="date" style="shape=partialRectangle;connectable=0;fillColor=none;top=0;left=0;bottom=0;right=0;editable=1;overflow=hidden;whiteSpace=wrap;html=1;" parent="xpVKkxNU8PtLnsWlY8sR-351" vertex="1">
          <mxGeometry width="50" height="30" as="geometry">
            <mxRectangle width="50" height="30" as="alternateBounds" />
          </mxGeometry>
        </mxCell>
        <mxCell id="xpVKkxNU8PtLnsWlY8sR-353" value="SubscriptionDate" style="shape=partialRectangle;connectable=0;fillColor=none;top=0;left=0;bottom=0;right=0;align=left;spacingLeft=6;overflow=hidden;whiteSpace=wrap;html=1;" parent="xpVKkxNU8PtLnsWlY8sR-351" vertex="1">
          <mxGeometry x="50" width="130" height="30" as="geometry">
            <mxRectangle width="130" height="30" as="alternateBounds" />
          </mxGeometry>
        </mxCell>
        <mxCell id="xpVKkxNU8PtLnsWlY8sR-362" value="Playlist" style="shape=table;startSize=30;container=1;collapsible=1;childLayout=tableLayout;fixedRows=1;rowLines=0;fontStyle=1;align=center;resizeLast=1;html=1;" parent="1" vertex="1">
          <mxGeometry x="1620" y="-410" width="180" height="120" as="geometry" />
        </mxCell>
        <mxCell id="xpVKkxNU8PtLnsWlY8sR-363" value="" style="shape=tableRow;horizontal=0;startSize=0;swimlaneHead=0;swimlaneBody=0;fillColor=none;collapsible=0;dropTarget=0;points=[[0,0.5],[1,0.5]];portConstraint=eastwest;top=0;left=0;right=0;bottom=1;" parent="xpVKkxNU8PtLnsWlY8sR-362" vertex="1">
          <mxGeometry y="30" width="180" height="30" as="geometry" />
        </mxCell>
        <mxCell id="xpVKkxNU8PtLnsWlY8sR-364" value="PK text" style="shape=partialRectangle;connectable=0;fillColor=none;top=0;left=0;bottom=0;right=0;fontStyle=1;overflow=hidden;whiteSpace=wrap;html=1;" parent="xpVKkxNU8PtLnsWlY8sR-363" vertex="1">
          <mxGeometry width="50" height="30" as="geometry">
            <mxRectangle width="50" height="30" as="alternateBounds" />
          </mxGeometry>
        </mxCell>
        <mxCell id="xpVKkxNU8PtLnsWlY8sR-365" value="PlaylistName" style="shape=partialRectangle;connectable=0;fillColor=none;top=0;left=0;bottom=0;right=0;align=left;spacingLeft=6;fontStyle=5;overflow=hidden;whiteSpace=wrap;html=1;" parent="xpVKkxNU8PtLnsWlY8sR-363" vertex="1">
          <mxGeometry x="50" width="130" height="30" as="geometry">
            <mxRectangle width="130" height="30" as="alternateBounds" />
          </mxGeometry>
        </mxCell>
        <mxCell id="xpVKkxNU8PtLnsWlY8sR-410" value="" style="shape=tableRow;horizontal=0;startSize=0;swimlaneHead=0;swimlaneBody=0;fillColor=none;collapsible=0;dropTarget=0;points=[[0,0.5],[1,0.5]];portConstraint=eastwest;top=0;left=0;right=0;bottom=1;" parent="xpVKkxNU8PtLnsWlY8sR-362" vertex="1">
          <mxGeometry y="60" width="180" height="30" as="geometry" />
        </mxCell>
        <mxCell id="xpVKkxNU8PtLnsWlY8sR-411" value="PK FK text" style="shape=partialRectangle;connectable=0;fillColor=none;top=0;left=0;bottom=0;right=0;fontStyle=1;overflow=hidden;whiteSpace=wrap;html=1;" parent="xpVKkxNU8PtLnsWlY8sR-410" vertex="1">
          <mxGeometry width="50" height="30" as="geometry">
            <mxRectangle width="50" height="30" as="alternateBounds" />
          </mxGeometry>
        </mxCell>
        <mxCell id="xpVKkxNU8PtLnsWlY8sR-412" value="Email" style="shape=partialRectangle;connectable=0;fillColor=none;top=0;left=0;bottom=0;right=0;align=left;spacingLeft=6;fontStyle=5;overflow=hidden;whiteSpace=wrap;html=1;" parent="xpVKkxNU8PtLnsWlY8sR-410" vertex="1">
          <mxGeometry x="50" width="130" height="30" as="geometry">
            <mxRectangle width="130" height="30" as="alternateBounds" />
          </mxGeometry>
        </mxCell>
        <mxCell id="xpVKkxNU8PtLnsWlY8sR-366" value="" style="shape=tableRow;horizontal=0;startSize=0;swimlaneHead=0;swimlaneBody=0;fillColor=none;collapsible=0;dropTarget=0;points=[[0,0.5],[1,0.5]];portConstraint=eastwest;top=0;left=0;right=0;bottom=0;" parent="xpVKkxNU8PtLnsWlY8sR-362" vertex="1">
          <mxGeometry y="90" width="180" height="30" as="geometry" />
        </mxCell>
        <mxCell id="xpVKkxNU8PtLnsWlY8sR-367" value="date" style="shape=partialRectangle;connectable=0;fillColor=none;top=0;left=0;bottom=0;right=0;editable=1;overflow=hidden;whiteSpace=wrap;html=1;" parent="xpVKkxNU8PtLnsWlY8sR-366" vertex="1">
          <mxGeometry width="50" height="30" as="geometry">
            <mxRectangle width="50" height="30" as="alternateBounds" />
          </mxGeometry>
        </mxCell>
        <mxCell id="xpVKkxNU8PtLnsWlY8sR-368" value="CreationDate" style="shape=partialRectangle;connectable=0;fillColor=none;top=0;left=0;bottom=0;right=0;align=left;spacingLeft=6;overflow=hidden;whiteSpace=wrap;html=1;" parent="xpVKkxNU8PtLnsWlY8sR-366" vertex="1">
          <mxGeometry x="50" width="130" height="30" as="geometry">
            <mxRectangle width="130" height="30" as="alternateBounds" />
          </mxGeometry>
        </mxCell>
        <mxCell id="xpVKkxNU8PtLnsWlY8sR-375" value="PlaylistVideo" style="shape=table;startSize=30;container=1;collapsible=1;childLayout=tableLayout;fixedRows=1;rowLines=0;fontStyle=1;align=center;resizeLast=1;html=1;" parent="1" vertex="1">
          <mxGeometry x="1990" y="-410" width="180" height="150" as="geometry" />
        </mxCell>
        <mxCell id="xpVKkxNU8PtLnsWlY8sR-376" value="" style="shape=tableRow;horizontal=0;startSize=0;swimlaneHead=0;swimlaneBody=0;fillColor=none;collapsible=0;dropTarget=0;points=[[0,0.5],[1,0.5]];portConstraint=eastwest;top=0;left=0;right=0;bottom=1;" parent="xpVKkxNU8PtLnsWlY8sR-375" vertex="1">
          <mxGeometry y="30" width="180" height="30" as="geometry" />
        </mxCell>
        <mxCell id="xpVKkxNU8PtLnsWlY8sR-377" value="PK FK text" style="shape=partialRectangle;connectable=0;fillColor=none;top=0;left=0;bottom=0;right=0;fontStyle=1;overflow=hidden;whiteSpace=wrap;html=1;" parent="xpVKkxNU8PtLnsWlY8sR-376" vertex="1">
          <mxGeometry width="50" height="30" as="geometry">
            <mxRectangle width="50" height="30" as="alternateBounds" />
          </mxGeometry>
        </mxCell>
        <mxCell id="xpVKkxNU8PtLnsWlY8sR-378" value="PlaylistName" style="shape=partialRectangle;connectable=0;fillColor=none;top=0;left=0;bottom=0;right=0;align=left;spacingLeft=6;fontStyle=5;overflow=hidden;whiteSpace=wrap;html=1;" parent="xpVKkxNU8PtLnsWlY8sR-376" vertex="1">
          <mxGeometry x="50" width="130" height="30" as="geometry">
            <mxRectangle width="130" height="30" as="alternateBounds" />
          </mxGeometry>
        </mxCell>
        <mxCell id="xpVKkxNU8PtLnsWlY8sR-413" value="" style="shape=tableRow;horizontal=0;startSize=0;swimlaneHead=0;swimlaneBody=0;fillColor=none;collapsible=0;dropTarget=0;points=[[0,0.5],[1,0.5]];portConstraint=eastwest;top=0;left=0;right=0;bottom=1;" parent="xpVKkxNU8PtLnsWlY8sR-375" vertex="1">
          <mxGeometry y="60" width="180" height="30" as="geometry" />
        </mxCell>
        <mxCell id="xpVKkxNU8PtLnsWlY8sR-414" value="PK FK&lt;br&gt;text" style="shape=partialRectangle;connectable=0;fillColor=none;top=0;left=0;bottom=0;right=0;fontStyle=1;overflow=hidden;whiteSpace=wrap;html=1;" parent="xpVKkxNU8PtLnsWlY8sR-413" vertex="1">
          <mxGeometry width="50" height="30" as="geometry">
            <mxRectangle width="50" height="30" as="alternateBounds" />
          </mxGeometry>
        </mxCell>
        <mxCell id="xpVKkxNU8PtLnsWlY8sR-415" value="Email" style="shape=partialRectangle;connectable=0;fillColor=none;top=0;left=0;bottom=0;right=0;align=left;spacingLeft=6;fontStyle=5;overflow=hidden;whiteSpace=wrap;html=1;" parent="xpVKkxNU8PtLnsWlY8sR-413" vertex="1">
          <mxGeometry x="50" width="130" height="30" as="geometry">
            <mxRectangle width="130" height="30" as="alternateBounds" />
          </mxGeometry>
        </mxCell>
        <mxCell id="xpVKkxNU8PtLnsWlY8sR-432" value="" style="shape=tableRow;horizontal=0;startSize=0;swimlaneHead=0;swimlaneBody=0;fillColor=none;collapsible=0;dropTarget=0;points=[[0,0.5],[1,0.5]];portConstraint=eastwest;top=0;left=0;right=0;bottom=1;" parent="xpVKkxNU8PtLnsWlY8sR-375" vertex="1">
          <mxGeometry y="90" width="180" height="30" as="geometry" />
        </mxCell>
        <mxCell id="xpVKkxNU8PtLnsWlY8sR-433" value="PK FK&lt;br&gt;text" style="shape=partialRectangle;connectable=0;fillColor=none;top=0;left=0;bottom=0;right=0;fontStyle=1;overflow=hidden;whiteSpace=wrap;html=1;" parent="xpVKkxNU8PtLnsWlY8sR-432" vertex="1">
          <mxGeometry width="50" height="30" as="geometry">
            <mxRectangle width="50" height="30" as="alternateBounds" />
          </mxGeometry>
        </mxCell>
        <mxCell id="xpVKkxNU8PtLnsWlY8sR-434" value="URL" style="shape=partialRectangle;connectable=0;fillColor=none;top=0;left=0;bottom=0;right=0;align=left;spacingLeft=6;fontStyle=5;overflow=hidden;whiteSpace=wrap;html=1;" parent="xpVKkxNU8PtLnsWlY8sR-432" vertex="1">
          <mxGeometry x="50" width="130" height="30" as="geometry">
            <mxRectangle width="130" height="30" as="alternateBounds" />
          </mxGeometry>
        </mxCell>
        <mxCell id="xpVKkxNU8PtLnsWlY8sR-382" value="" style="shape=tableRow;horizontal=0;startSize=0;swimlaneHead=0;swimlaneBody=0;fillColor=none;collapsible=0;dropTarget=0;points=[[0,0.5],[1,0.5]];portConstraint=eastwest;top=0;left=0;right=0;bottom=0;" parent="xpVKkxNU8PtLnsWlY8sR-375" vertex="1">
          <mxGeometry y="120" width="180" height="30" as="geometry" />
        </mxCell>
        <mxCell id="xpVKkxNU8PtLnsWlY8sR-383" value="int" style="shape=partialRectangle;connectable=0;fillColor=none;top=0;left=0;bottom=0;right=0;editable=1;overflow=hidden;whiteSpace=wrap;html=1;" parent="xpVKkxNU8PtLnsWlY8sR-382" vertex="1">
          <mxGeometry width="50" height="30" as="geometry">
            <mxRectangle width="50" height="30" as="alternateBounds" />
          </mxGeometry>
        </mxCell>
        <mxCell id="xpVKkxNU8PtLnsWlY8sR-384" value="Order" style="shape=partialRectangle;connectable=0;fillColor=none;top=0;left=0;bottom=0;right=0;align=left;spacingLeft=6;overflow=hidden;whiteSpace=wrap;html=1;" parent="xpVKkxNU8PtLnsWlY8sR-382" vertex="1">
          <mxGeometry x="50" width="130" height="30" as="geometry">
            <mxRectangle width="130" height="30" as="alternateBounds" />
          </mxGeometry>
        </mxCell>
        <mxCell id="xpVKkxNU8PtLnsWlY8sR-472" value="Like" style="shape=table;startSize=30;container=1;collapsible=1;childLayout=tableLayout;fixedRows=1;rowLines=0;fontStyle=1;align=center;resizeLast=1;html=1;" parent="1" vertex="1">
          <mxGeometry x="1230" y="-225" width="180" height="150" as="geometry" />
        </mxCell>
        <mxCell id="xpVKkxNU8PtLnsWlY8sR-473" value="" style="shape=tableRow;horizontal=0;startSize=0;swimlaneHead=0;swimlaneBody=0;fillColor=none;collapsible=0;dropTarget=0;points=[[0,0.5],[1,0.5]];portConstraint=eastwest;top=0;left=0;right=0;bottom=1;" parent="xpVKkxNU8PtLnsWlY8sR-472" vertex="1">
          <mxGeometry y="30" width="180" height="30" as="geometry" />
        </mxCell>
        <mxCell id="xpVKkxNU8PtLnsWlY8sR-474" value="PK FK text" style="shape=partialRectangle;connectable=0;fillColor=none;top=0;left=0;bottom=0;right=0;fontStyle=1;overflow=hidden;whiteSpace=wrap;html=1;" parent="xpVKkxNU8PtLnsWlY8sR-473" vertex="1">
          <mxGeometry width="50" height="30" as="geometry">
            <mxRectangle width="50" height="30" as="alternateBounds" />
          </mxGeometry>
        </mxCell>
        <mxCell id="xpVKkxNU8PtLnsWlY8sR-475" value="URL" style="shape=partialRectangle;connectable=0;fillColor=none;top=0;left=0;bottom=0;right=0;align=left;spacingLeft=6;fontStyle=5;overflow=hidden;whiteSpace=wrap;html=1;" parent="xpVKkxNU8PtLnsWlY8sR-473" vertex="1">
          <mxGeometry x="50" width="130" height="30" as="geometry">
            <mxRectangle width="130" height="30" as="alternateBounds" />
          </mxGeometry>
        </mxCell>
        <mxCell id="xpVKkxNU8PtLnsWlY8sR-476" value="" style="shape=tableRow;horizontal=0;startSize=0;swimlaneHead=0;swimlaneBody=0;fillColor=none;collapsible=0;dropTarget=0;points=[[0,0.5],[1,0.5]];portConstraint=eastwest;top=0;left=0;right=0;bottom=1;" parent="xpVKkxNU8PtLnsWlY8sR-472" vertex="1">
          <mxGeometry y="60" width="180" height="30" as="geometry" />
        </mxCell>
        <mxCell id="xpVKkxNU8PtLnsWlY8sR-477" value="PK FK text" style="shape=partialRectangle;connectable=0;fillColor=none;top=0;left=0;bottom=0;right=0;fontStyle=1;overflow=hidden;whiteSpace=wrap;html=1;" parent="xpVKkxNU8PtLnsWlY8sR-476" vertex="1">
          <mxGeometry width="50" height="30" as="geometry">
            <mxRectangle width="50" height="30" as="alternateBounds" />
          </mxGeometry>
        </mxCell>
        <mxCell id="xpVKkxNU8PtLnsWlY8sR-478" value="Email" style="shape=partialRectangle;connectable=0;fillColor=none;top=0;left=0;bottom=0;right=0;align=left;spacingLeft=6;fontStyle=5;overflow=hidden;whiteSpace=wrap;html=1;" parent="xpVKkxNU8PtLnsWlY8sR-476" vertex="1">
          <mxGeometry x="50" width="130" height="30" as="geometry">
            <mxRectangle width="130" height="30" as="alternateBounds" />
          </mxGeometry>
        </mxCell>
        <mxCell id="xpVKkxNU8PtLnsWlY8sR-479" value="" style="shape=tableRow;horizontal=0;startSize=0;swimlaneHead=0;swimlaneBody=0;fillColor=none;collapsible=0;dropTarget=0;points=[[0,0.5],[1,0.5]];portConstraint=eastwest;top=0;left=0;right=0;bottom=0;" parent="xpVKkxNU8PtLnsWlY8sR-472" vertex="1">
          <mxGeometry y="90" width="180" height="30" as="geometry" />
        </mxCell>
        <mxCell id="xpVKkxNU8PtLnsWlY8sR-480" value="boolean" style="shape=partialRectangle;connectable=0;fillColor=none;top=0;left=0;bottom=0;right=0;editable=1;overflow=hidden;whiteSpace=wrap;html=1;" parent="xpVKkxNU8PtLnsWlY8sR-479" vertex="1">
          <mxGeometry width="50" height="30" as="geometry">
            <mxRectangle width="50" height="30" as="alternateBounds" />
          </mxGeometry>
        </mxCell>
        <mxCell id="xpVKkxNU8PtLnsWlY8sR-481" value="isLiked" style="shape=partialRectangle;connectable=0;fillColor=none;top=0;left=0;bottom=0;right=0;align=left;spacingLeft=6;overflow=hidden;whiteSpace=wrap;html=1;" parent="xpVKkxNU8PtLnsWlY8sR-479" vertex="1">
          <mxGeometry x="50" width="130" height="30" as="geometry">
            <mxRectangle width="130" height="30" as="alternateBounds" />
          </mxGeometry>
        </mxCell>
        <mxCell id="xpVKkxNU8PtLnsWlY8sR-482" value="" style="shape=tableRow;horizontal=0;startSize=0;swimlaneHead=0;swimlaneBody=0;fillColor=none;collapsible=0;dropTarget=0;points=[[0,0.5],[1,0.5]];portConstraint=eastwest;top=0;left=0;right=0;bottom=0;" parent="xpVKkxNU8PtLnsWlY8sR-472" vertex="1">
          <mxGeometry y="120" width="180" height="30" as="geometry" />
        </mxCell>
        <mxCell id="xpVKkxNU8PtLnsWlY8sR-483" value="date" style="shape=partialRectangle;connectable=0;fillColor=none;top=0;left=0;bottom=0;right=0;editable=1;overflow=hidden;whiteSpace=wrap;html=1;" parent="xpVKkxNU8PtLnsWlY8sR-482" vertex="1">
          <mxGeometry width="50" height="30" as="geometry">
            <mxRectangle width="50" height="30" as="alternateBounds" />
          </mxGeometry>
        </mxCell>
        <mxCell id="xpVKkxNU8PtLnsWlY8sR-484" value="LikeDate" style="shape=partialRectangle;connectable=0;fillColor=none;top=0;left=0;bottom=0;right=0;align=left;spacingLeft=6;overflow=hidden;whiteSpace=wrap;html=1;" parent="xpVKkxNU8PtLnsWlY8sR-482" vertex="1">
          <mxGeometry x="50" width="130" height="30" as="geometry">
            <mxRectangle width="130" height="30" as="alternateBounds" />
          </mxGeometry>
        </mxCell>
        <mxCell id="xpVKkxNU8PtLnsWlY8sR-494" value="&lt;font style=&quot;font-size: 48px;&quot;&gt;&lt;b style=&quot;&quot;&gt;YouTube&lt;/b&gt; Crow&#39;s Foot Notation Diagram&amp;nbsp;&lt;/font&gt;" style="text;html=1;align=center;verticalAlign=middle;resizable=0;points=[];autosize=1;strokeColor=none;fillColor=none;" parent="1" vertex="1">
          <mxGeometry x="1175" y="-1025" width="890" height="70" as="geometry" />
        </mxCell>
        <mxCell id="QSHdrZAPcqocFxPk3kdq-1" value="UserAccount" style="whiteSpace=wrap;html=1;align=center;" parent="1" vertex="1">
          <mxGeometry x="-650" y="-685" width="120" height="70" as="geometry" />
        </mxCell>
        <mxCell id="QSHdrZAPcqocFxPk3kdq-8" value="" style="edgeStyle=orthogonalEdgeStyle;fontSize=12;html=1;endArrow=ERzeroToMany;endFill=1;startArrow=ERzeroToMany;rounded=0;fillColor=#0AFF54;exitX=0.001;exitY=0.133;exitDx=0;exitDy=0;exitPerimeter=0;" parent="1" source="xpVKkxNU8PtLnsWlY8sR-262" target="xpVKkxNU8PtLnsWlY8sR-348" edge="1">
          <mxGeometry width="100" height="100" relative="1" as="geometry">
            <mxPoint x="1150" y="-719.3399999999999" as="sourcePoint" />
            <mxPoint x="1146.94" y="-930" as="targetPoint" />
            <Array as="points">
              <mxPoint x="1170" y="-746" />
              <mxPoint x="1170" y="-735" />
            </Array>
          </mxGeometry>
        </mxCell>
        <mxCell id="QSHdrZAPcqocFxPk3kdq-9" value="" style="edgeStyle=orthogonalEdgeStyle;fontSize=12;html=1;endArrow=ERzeroToMany;endFill=1;startArrow=ERzeroToMany;rounded=0;fillColor=#0AFF54;exitX=0.006;exitY=0.133;exitDx=0;exitDy=0;exitPerimeter=0;" parent="1" source="xpVKkxNU8PtLnsWlY8sR-262" target="xpVKkxNU8PtLnsWlY8sR-407" edge="1">
          <mxGeometry width="100" height="100" relative="1" as="geometry">
            <mxPoint x="1210" y="-730" as="sourcePoint" />
            <mxPoint x="1210" y="-910" as="targetPoint" />
          </mxGeometry>
        </mxCell>
        <mxCell id="QSHdrZAPcqocFxPk3kdq-10" value="" style="edgeStyle=orthogonalEdgeStyle;fontSize=12;html=1;endArrow=ERzeroToMany;startArrow=ERmandOne;rounded=0;" parent="1" source="xpVKkxNU8PtLnsWlY8sR-262" target="xpVKkxNU8PtLnsWlY8sR-461" edge="1">
          <mxGeometry width="100" height="100" relative="1" as="geometry">
            <mxPoint x="1480" y="-655" as="sourcePoint" />
            <mxPoint x="1580" y="-755" as="targetPoint" />
          </mxGeometry>
        </mxCell>
        <mxCell id="QSHdrZAPcqocFxPk3kdq-12" value="" style="edgeStyle=orthogonalEdgeStyle;fontSize=12;html=1;endArrow=ERzeroToMany;startArrow=ERmandOne;rounded=0;" parent="1" source="xpVKkxNU8PtLnsWlY8sR-281" target="xpVKkxNU8PtLnsWlY8sR-322" edge="1">
          <mxGeometry width="100" height="100" relative="1" as="geometry">
            <mxPoint x="1460" y="-325" as="sourcePoint" />
            <mxPoint x="1560" y="-425" as="targetPoint" />
            <Array as="points">
              <mxPoint x="1540" y="-735" />
              <mxPoint x="1540" y="-395" />
            </Array>
          </mxGeometry>
        </mxCell>
        <mxCell id="QSHdrZAPcqocFxPk3kdq-13" value="" style="edgeStyle=orthogonalEdgeStyle;fontSize=12;html=1;endArrow=ERzeroToMany;startArrow=ERmandOne;rounded=0;" parent="1" source="xpVKkxNU8PtLnsWlY8sR-281" target="xpVKkxNU8PtLnsWlY8sR-473" edge="1">
          <mxGeometry width="100" height="100" relative="1" as="geometry">
            <mxPoint x="1640" y="-725" as="sourcePoint" />
            <mxPoint x="1420" y="-355" as="targetPoint" />
            <Array as="points">
              <mxPoint x="1570" y="-735" />
              <mxPoint x="1570" y="-180" />
            </Array>
          </mxGeometry>
        </mxCell>
        <mxCell id="QSHdrZAPcqocFxPk3kdq-20" value="" style="edgeStyle=orthogonalEdgeStyle;fontSize=12;html=1;endArrow=ERzeroToMany;startArrow=ERmandOne;rounded=0;entryX=0;entryY=0.619;entryDx=0;entryDy=0;entryPerimeter=0;" parent="1" target="xpVKkxNU8PtLnsWlY8sR-388" edge="1">
          <mxGeometry width="100" height="100" relative="1" as="geometry">
            <mxPoint x="1230" y="-725" as="sourcePoint" />
            <mxPoint x="1230" y="-675" as="targetPoint" />
            <Array as="points">
              <mxPoint x="1230" y="-725" />
              <mxPoint x="1200" y="-725" />
              <mxPoint x="1200" y="-361" />
            </Array>
          </mxGeometry>
        </mxCell>
        <mxCell id="QSHdrZAPcqocFxPk3kdq-22" value="" style="edgeStyle=orthogonalEdgeStyle;fontSize=12;html=1;endArrow=ERzeroToMany;startArrow=ERmandOne;rounded=0;" parent="1" source="xpVKkxNU8PtLnsWlY8sR-363" target="xpVKkxNU8PtLnsWlY8sR-376" edge="1">
          <mxGeometry width="100" height="100" relative="1" as="geometry">
            <mxPoint x="1840" y="-335" as="sourcePoint" />
            <mxPoint x="1940" y="-435" as="targetPoint" />
          </mxGeometry>
        </mxCell>
        <mxCell id="QSHdrZAPcqocFxPk3kdq-23" value="" style="edgeStyle=orthogonalEdgeStyle;fontSize=12;html=1;endArrow=ERzeroToMany;startArrow=ERmandOne;rounded=0;entryX=0;entryY=0.5;entryDx=0;entryDy=0;exitX=1.003;exitY=0.263;exitDx=0;exitDy=0;exitPerimeter=0;" parent="1" source="xpVKkxNU8PtLnsWlY8sR-262" target="xpVKkxNU8PtLnsWlY8sR-410" edge="1">
          <mxGeometry width="100" height="100" relative="1" as="geometry">
            <mxPoint x="1450" y="-765" as="sourcePoint" />
            <mxPoint x="1810" y="-485" as="targetPoint" />
            <Array as="points">
              <mxPoint x="1450" y="-742" />
              <mxPoint x="1450" y="-825" />
              <mxPoint x="2210" y="-825" />
              <mxPoint x="2210" y="-445" />
              <mxPoint x="1590" y="-445" />
              <mxPoint x="1590" y="-335" />
            </Array>
          </mxGeometry>
        </mxCell>
        <mxCell id="QSHdrZAPcqocFxPk3kdq-24" value="" style="edgeStyle=entityRelationEdgeStyle;fontSize=12;html=1;endArrow=ERmandOne;startArrow=ERmandOne;rounded=0;entryX=0;entryY=0.5;entryDx=0;entryDy=0;exitX=1;exitY=0.5;exitDx=0;exitDy=0;" parent="1" source="xpVKkxNU8PtLnsWlY8sR-410" target="xpVKkxNU8PtLnsWlY8sR-413" edge="1">
          <mxGeometry width="100" height="100" relative="1" as="geometry">
            <mxPoint x="1880" y="-225" as="sourcePoint" />
            <mxPoint x="1980" y="-325" as="targetPoint" />
          </mxGeometry>
        </mxCell>
        <mxCell id="QSHdrZAPcqocFxPk3kdq-25" value="" style="edgeStyle=orthogonalEdgeStyle;fontSize=12;html=1;endArrow=ERzeroToMany;startArrow=ERmandOne;rounded=0;entryX=1;entryY=0.5;entryDx=0;entryDy=0;exitX=1;exitY=0.5;exitDx=0;exitDy=0;" parent="1" source="xpVKkxNU8PtLnsWlY8sR-281" target="xpVKkxNU8PtLnsWlY8sR-432" edge="1">
          <mxGeometry width="100" height="100" relative="1" as="geometry">
            <mxPoint x="1840" y="-735" as="sourcePoint" />
            <mxPoint x="2300" y="-375" as="targetPoint" />
            <Array as="points">
              <mxPoint x="1840" y="-735" />
              <mxPoint x="1840" y="-865" />
              <mxPoint x="2250" y="-865" />
              <mxPoint x="2250" y="-305" />
            </Array>
          </mxGeometry>
        </mxCell>
        <mxCell id="QSHdrZAPcqocFxPk3kdq-27" value="" style="shape=table;startSize=0;container=1;collapsible=0;childLayout=tableLayout;" parent="1" vertex="1">
          <mxGeometry x="-850" y="-10" width="3400" height="20" as="geometry" />
        </mxCell>
        <mxCell id="QSHdrZAPcqocFxPk3kdq-28" value="" style="shape=tableRow;horizontal=0;startSize=0;swimlaneHead=0;swimlaneBody=0;strokeColor=inherit;top=0;left=0;bottom=0;right=0;collapsible=0;dropTarget=0;fillColor=none;points=[[0,0.5],[1,0.5]];portConstraint=eastwest;" parent="QSHdrZAPcqocFxPk3kdq-27" vertex="1">
          <mxGeometry width="3400" height="20" as="geometry" />
        </mxCell>
        <mxCell id="QSHdrZAPcqocFxPk3kdq-29" value="" style="shape=partialRectangle;html=1;whiteSpace=wrap;connectable=0;strokeColor=inherit;overflow=hidden;fillColor=none;top=0;left=0;bottom=0;right=0;pointerEvents=1;" parent="QSHdrZAPcqocFxPk3kdq-28" vertex="1">
          <mxGeometry width="170" height="20" as="geometry">
            <mxRectangle width="170" height="20" as="alternateBounds" />
          </mxGeometry>
        </mxCell>
        <mxCell id="QSHdrZAPcqocFxPk3kdq-30" value="" style="shape=partialRectangle;html=1;whiteSpace=wrap;connectable=0;strokeColor=inherit;overflow=hidden;fillColor=none;top=0;left=0;bottom=0;right=0;pointerEvents=1;" parent="QSHdrZAPcqocFxPk3kdq-28" vertex="1">
          <mxGeometry x="170" width="170" height="20" as="geometry">
            <mxRectangle width="170" height="20" as="alternateBounds" />
          </mxGeometry>
        </mxCell>
        <mxCell id="QSHdrZAPcqocFxPk3kdq-31" value="" style="shape=partialRectangle;html=1;whiteSpace=wrap;connectable=0;strokeColor=inherit;overflow=hidden;fillColor=none;top=0;left=0;bottom=0;right=0;pointerEvents=1;" parent="QSHdrZAPcqocFxPk3kdq-28" vertex="1">
          <mxGeometry x="340" width="170" height="20" as="geometry">
            <mxRectangle width="170" height="20" as="alternateBounds" />
          </mxGeometry>
        </mxCell>
        <mxCell id="QSHdrZAPcqocFxPk3kdq-32" value="" style="shape=partialRectangle;html=1;whiteSpace=wrap;connectable=0;strokeColor=inherit;overflow=hidden;fillColor=none;top=0;left=0;bottom=0;right=0;pointerEvents=1;" parent="QSHdrZAPcqocFxPk3kdq-28" vertex="1">
          <mxGeometry x="510" width="170" height="20" as="geometry">
            <mxRectangle width="170" height="20" as="alternateBounds" />
          </mxGeometry>
        </mxCell>
        <mxCell id="QSHdrZAPcqocFxPk3kdq-33" value="" style="shape=partialRectangle;html=1;whiteSpace=wrap;connectable=0;strokeColor=inherit;overflow=hidden;fillColor=none;top=0;left=0;bottom=0;right=0;pointerEvents=1;" parent="QSHdrZAPcqocFxPk3kdq-28" vertex="1">
          <mxGeometry x="680" width="170" height="20" as="geometry">
            <mxRectangle width="170" height="20" as="alternateBounds" />
          </mxGeometry>
        </mxCell>
        <mxCell id="QSHdrZAPcqocFxPk3kdq-34" value="" style="shape=partialRectangle;html=1;whiteSpace=wrap;connectable=0;strokeColor=inherit;overflow=hidden;fillColor=none;top=0;left=0;bottom=0;right=0;pointerEvents=1;" parent="QSHdrZAPcqocFxPk3kdq-28" vertex="1">
          <mxGeometry x="850" width="170" height="20" as="geometry">
            <mxRectangle width="170" height="20" as="alternateBounds" />
          </mxGeometry>
        </mxCell>
        <mxCell id="QSHdrZAPcqocFxPk3kdq-35" value="" style="shape=partialRectangle;html=1;whiteSpace=wrap;connectable=0;strokeColor=inherit;overflow=hidden;fillColor=none;top=0;left=0;bottom=0;right=0;pointerEvents=1;" parent="QSHdrZAPcqocFxPk3kdq-28" vertex="1">
          <mxGeometry x="1020" width="170" height="20" as="geometry">
            <mxRectangle width="170" height="20" as="alternateBounds" />
          </mxGeometry>
        </mxCell>
        <mxCell id="QSHdrZAPcqocFxPk3kdq-36" value="" style="shape=partialRectangle;html=1;whiteSpace=wrap;connectable=0;strokeColor=inherit;overflow=hidden;fillColor=none;top=0;left=0;bottom=0;right=0;pointerEvents=1;" parent="QSHdrZAPcqocFxPk3kdq-28" vertex="1">
          <mxGeometry x="1190" width="170" height="20" as="geometry">
            <mxRectangle width="170" height="20" as="alternateBounds" />
          </mxGeometry>
        </mxCell>
        <mxCell id="QSHdrZAPcqocFxPk3kdq-37" value="" style="shape=partialRectangle;html=1;whiteSpace=wrap;connectable=0;strokeColor=inherit;overflow=hidden;fillColor=none;top=0;left=0;bottom=0;right=0;pointerEvents=1;" parent="QSHdrZAPcqocFxPk3kdq-28" vertex="1">
          <mxGeometry x="1360" width="170" height="20" as="geometry">
            <mxRectangle width="170" height="20" as="alternateBounds" />
          </mxGeometry>
        </mxCell>
        <mxCell id="QSHdrZAPcqocFxPk3kdq-38" value="" style="shape=partialRectangle;html=1;whiteSpace=wrap;connectable=0;strokeColor=inherit;overflow=hidden;fillColor=none;top=0;left=0;bottom=0;right=0;pointerEvents=1;" parent="QSHdrZAPcqocFxPk3kdq-28" vertex="1">
          <mxGeometry x="1530" width="170" height="20" as="geometry">
            <mxRectangle width="170" height="20" as="alternateBounds" />
          </mxGeometry>
        </mxCell>
        <mxCell id="QSHdrZAPcqocFxPk3kdq-39" value="" style="shape=partialRectangle;html=1;whiteSpace=wrap;connectable=0;strokeColor=inherit;overflow=hidden;fillColor=none;top=0;left=0;bottom=0;right=0;pointerEvents=1;" parent="QSHdrZAPcqocFxPk3kdq-28" vertex="1">
          <mxGeometry x="1700" width="170" height="20" as="geometry">
            <mxRectangle width="170" height="20" as="alternateBounds" />
          </mxGeometry>
        </mxCell>
        <mxCell id="QSHdrZAPcqocFxPk3kdq-40" value="" style="shape=partialRectangle;html=1;whiteSpace=wrap;connectable=0;strokeColor=inherit;overflow=hidden;fillColor=none;top=0;left=0;bottom=0;right=0;pointerEvents=1;" parent="QSHdrZAPcqocFxPk3kdq-28" vertex="1">
          <mxGeometry x="1870" width="170" height="20" as="geometry">
            <mxRectangle width="170" height="20" as="alternateBounds" />
          </mxGeometry>
        </mxCell>
        <mxCell id="QSHdrZAPcqocFxPk3kdq-41" value="" style="shape=partialRectangle;html=1;whiteSpace=wrap;connectable=0;strokeColor=inherit;overflow=hidden;fillColor=none;top=0;left=0;bottom=0;right=0;pointerEvents=1;" parent="QSHdrZAPcqocFxPk3kdq-28" vertex="1">
          <mxGeometry x="2040" width="170" height="20" as="geometry">
            <mxRectangle width="170" height="20" as="alternateBounds" />
          </mxGeometry>
        </mxCell>
        <mxCell id="QSHdrZAPcqocFxPk3kdq-42" value="" style="shape=partialRectangle;html=1;whiteSpace=wrap;connectable=0;strokeColor=inherit;overflow=hidden;fillColor=none;top=0;left=0;bottom=0;right=0;pointerEvents=1;" parent="QSHdrZAPcqocFxPk3kdq-28" vertex="1">
          <mxGeometry x="2210" width="170" height="20" as="geometry">
            <mxRectangle width="170" height="20" as="alternateBounds" />
          </mxGeometry>
        </mxCell>
        <mxCell id="QSHdrZAPcqocFxPk3kdq-43" value="" style="shape=partialRectangle;html=1;whiteSpace=wrap;connectable=0;strokeColor=inherit;overflow=hidden;fillColor=none;top=0;left=0;bottom=0;right=0;pointerEvents=1;" parent="QSHdrZAPcqocFxPk3kdq-28" vertex="1">
          <mxGeometry x="2380" width="170" height="20" as="geometry">
            <mxRectangle width="170" height="20" as="alternateBounds" />
          </mxGeometry>
        </mxCell>
        <mxCell id="QSHdrZAPcqocFxPk3kdq-44" value="" style="shape=partialRectangle;html=1;whiteSpace=wrap;connectable=0;strokeColor=inherit;overflow=hidden;fillColor=none;top=0;left=0;bottom=0;right=0;pointerEvents=1;" parent="QSHdrZAPcqocFxPk3kdq-28" vertex="1">
          <mxGeometry x="2550" width="170" height="20" as="geometry">
            <mxRectangle width="170" height="20" as="alternateBounds" />
          </mxGeometry>
        </mxCell>
        <mxCell id="QSHdrZAPcqocFxPk3kdq-45" value="" style="shape=partialRectangle;html=1;whiteSpace=wrap;connectable=0;strokeColor=inherit;overflow=hidden;fillColor=none;top=0;left=0;bottom=0;right=0;pointerEvents=1;" parent="QSHdrZAPcqocFxPk3kdq-28" vertex="1">
          <mxGeometry x="2720" width="170" height="20" as="geometry">
            <mxRectangle width="170" height="20" as="alternateBounds" />
          </mxGeometry>
        </mxCell>
        <mxCell id="QSHdrZAPcqocFxPk3kdq-46" value="" style="shape=partialRectangle;html=1;whiteSpace=wrap;connectable=0;strokeColor=inherit;overflow=hidden;fillColor=none;top=0;left=0;bottom=0;right=0;pointerEvents=1;" parent="QSHdrZAPcqocFxPk3kdq-28" vertex="1">
          <mxGeometry x="2890" width="170" height="20" as="geometry">
            <mxRectangle width="170" height="20" as="alternateBounds" />
          </mxGeometry>
        </mxCell>
        <mxCell id="QSHdrZAPcqocFxPk3kdq-47" value="" style="shape=partialRectangle;html=1;whiteSpace=wrap;connectable=0;strokeColor=inherit;overflow=hidden;fillColor=none;top=0;left=0;bottom=0;right=0;pointerEvents=1;" parent="QSHdrZAPcqocFxPk3kdq-28" vertex="1">
          <mxGeometry x="3060" width="170" height="20" as="geometry">
            <mxRectangle width="170" height="20" as="alternateBounds" />
          </mxGeometry>
        </mxCell>
        <mxCell id="QSHdrZAPcqocFxPk3kdq-48" value="" style="shape=partialRectangle;html=1;whiteSpace=wrap;connectable=0;strokeColor=inherit;overflow=hidden;fillColor=none;top=0;left=0;bottom=0;right=0;pointerEvents=1;" parent="QSHdrZAPcqocFxPk3kdq-28" vertex="1">
          <mxGeometry x="3230" width="170" height="20" as="geometry">
            <mxRectangle width="170" height="20" as="alternateBounds" />
          </mxGeometry>
        </mxCell>
        <mxCell id="aSBGOile0wIHyR0RarSi-1" value="&lt;font style=&quot;font-size: 48px;&quot;&gt;&lt;b&gt;YouTube&lt;/b&gt;&amp;nbsp;Data Warehouse Diagram&lt;/font&gt;" style="text;html=1;align=center;verticalAlign=middle;resizable=0;points=[];autosize=1;strokeColor=none;fillColor=none;" vertex="1" parent="1">
          <mxGeometry x="210" y="60" width="790" height="70" as="geometry" />
        </mxCell>
        <mxCell id="aSBGOile0wIHyR0RarSi-274" value="FactComment" style="shape=table;startSize=30;container=1;collapsible=1;childLayout=tableLayout;fixedRows=1;rowLines=0;fontStyle=1;align=center;resizeLast=1;html=1;" vertex="1" parent="1">
          <mxGeometry x="119.88999999999999" y="670" width="180" height="150" as="geometry" />
        </mxCell>
        <mxCell id="aSBGOile0wIHyR0RarSi-275" value="" style="shape=tableRow;horizontal=0;startSize=0;swimlaneHead=0;swimlaneBody=0;fillColor=none;collapsible=0;dropTarget=0;points=[[0,0.5],[1,0.5]];portConstraint=eastwest;top=0;left=0;right=0;bottom=1;" vertex="1" parent="aSBGOile0wIHyR0RarSi-274">
          <mxGeometry y="30" width="180" height="30" as="geometry" />
        </mxCell>
        <mxCell id="aSBGOile0wIHyR0RarSi-276" value="FK" style="shape=partialRectangle;connectable=0;fillColor=none;top=0;left=0;bottom=0;right=0;fontStyle=1;overflow=hidden;whiteSpace=wrap;html=1;" vertex="1" parent="aSBGOile0wIHyR0RarSi-275">
          <mxGeometry width="30" height="30" as="geometry">
            <mxRectangle width="30" height="30" as="alternateBounds" />
          </mxGeometry>
        </mxCell>
        <mxCell id="aSBGOile0wIHyR0RarSi-277" value="URL" style="shape=partialRectangle;connectable=0;fillColor=none;top=0;left=0;bottom=0;right=0;align=left;spacingLeft=6;fontStyle=5;overflow=hidden;whiteSpace=wrap;html=1;" vertex="1" parent="aSBGOile0wIHyR0RarSi-275">
          <mxGeometry x="30" width="150" height="30" as="geometry">
            <mxRectangle width="150" height="30" as="alternateBounds" />
          </mxGeometry>
        </mxCell>
        <mxCell id="aSBGOile0wIHyR0RarSi-278" value="" style="shape=tableRow;horizontal=0;startSize=0;swimlaneHead=0;swimlaneBody=0;fillColor=none;collapsible=0;dropTarget=0;points=[[0,0.5],[1,0.5]];portConstraint=eastwest;top=0;left=0;right=0;bottom=1;" vertex="1" parent="aSBGOile0wIHyR0RarSi-274">
          <mxGeometry y="60" width="180" height="30" as="geometry" />
        </mxCell>
        <mxCell id="aSBGOile0wIHyR0RarSi-279" value="FK" style="shape=partialRectangle;connectable=0;fillColor=none;top=0;left=0;bottom=0;right=0;fontStyle=1;overflow=hidden;whiteSpace=wrap;html=1;" vertex="1" parent="aSBGOile0wIHyR0RarSi-278">
          <mxGeometry width="30" height="30" as="geometry">
            <mxRectangle width="30" height="30" as="alternateBounds" />
          </mxGeometry>
        </mxCell>
        <mxCell id="aSBGOile0wIHyR0RarSi-280" value="UserAccountEmail" style="shape=partialRectangle;connectable=0;fillColor=none;top=0;left=0;bottom=0;right=0;align=left;spacingLeft=6;fontStyle=5;overflow=hidden;whiteSpace=wrap;html=1;" vertex="1" parent="aSBGOile0wIHyR0RarSi-278">
          <mxGeometry x="30" width="150" height="30" as="geometry">
            <mxRectangle width="150" height="30" as="alternateBounds" />
          </mxGeometry>
        </mxCell>
        <mxCell id="aSBGOile0wIHyR0RarSi-281" value="" style="shape=tableRow;horizontal=0;startSize=0;swimlaneHead=0;swimlaneBody=0;fillColor=none;collapsible=0;dropTarget=0;points=[[0,0.5],[1,0.5]];portConstraint=eastwest;top=0;left=0;right=0;bottom=0;" vertex="1" parent="aSBGOile0wIHyR0RarSi-274">
          <mxGeometry y="90" width="180" height="30" as="geometry" />
        </mxCell>
        <mxCell id="aSBGOile0wIHyR0RarSi-282" value="" style="shape=partialRectangle;connectable=0;fillColor=none;top=0;left=0;bottom=0;right=0;editable=1;overflow=hidden;whiteSpace=wrap;html=1;" vertex="1" parent="aSBGOile0wIHyR0RarSi-281">
          <mxGeometry width="30" height="30" as="geometry">
            <mxRectangle width="30" height="30" as="alternateBounds" />
          </mxGeometry>
        </mxCell>
        <mxCell id="aSBGOile0wIHyR0RarSi-283" value="CommentText" style="shape=partialRectangle;connectable=0;fillColor=none;top=0;left=0;bottom=0;right=0;align=left;spacingLeft=6;overflow=hidden;whiteSpace=wrap;html=1;" vertex="1" parent="aSBGOile0wIHyR0RarSi-281">
          <mxGeometry x="30" width="150" height="30" as="geometry">
            <mxRectangle width="150" height="30" as="alternateBounds" />
          </mxGeometry>
        </mxCell>
        <mxCell id="aSBGOile0wIHyR0RarSi-290" value="" style="shape=tableRow;horizontal=0;startSize=0;swimlaneHead=0;swimlaneBody=0;fillColor=none;collapsible=0;dropTarget=0;points=[[0,0.5],[1,0.5]];portConstraint=eastwest;top=0;left=0;right=0;bottom=0;" vertex="1" parent="aSBGOile0wIHyR0RarSi-274">
          <mxGeometry y="120" width="180" height="30" as="geometry" />
        </mxCell>
        <mxCell id="aSBGOile0wIHyR0RarSi-291" value="" style="shape=partialRectangle;connectable=0;fillColor=none;top=0;left=0;bottom=0;right=0;editable=1;overflow=hidden;whiteSpace=wrap;html=1;" vertex="1" parent="aSBGOile0wIHyR0RarSi-290">
          <mxGeometry width="30" height="30" as="geometry">
            <mxRectangle width="30" height="30" as="alternateBounds" />
          </mxGeometry>
        </mxCell>
        <mxCell id="aSBGOile0wIHyR0RarSi-292" value="CommentDate" style="shape=partialRectangle;connectable=0;fillColor=none;top=0;left=0;bottom=0;right=0;align=left;spacingLeft=6;overflow=hidden;whiteSpace=wrap;html=1;" vertex="1" parent="aSBGOile0wIHyR0RarSi-290">
          <mxGeometry x="30" width="150" height="30" as="geometry">
            <mxRectangle width="150" height="30" as="alternateBounds" />
          </mxGeometry>
        </mxCell>
        <mxCell id="aSBGOile0wIHyR0RarSi-329" value="FactLike" style="shape=table;startSize=30;container=1;collapsible=1;childLayout=tableLayout;fixedRows=1;rowLines=0;fontStyle=1;align=center;resizeLast=1;html=1;" vertex="1" parent="1">
          <mxGeometry x="119.88999999999999" y="890" width="180" height="150" as="geometry" />
        </mxCell>
        <mxCell id="aSBGOile0wIHyR0RarSi-330" value="" style="shape=tableRow;horizontal=0;startSize=0;swimlaneHead=0;swimlaneBody=0;fillColor=none;collapsible=0;dropTarget=0;points=[[0,0.5],[1,0.5]];portConstraint=eastwest;top=0;left=0;right=0;bottom=1;" vertex="1" parent="aSBGOile0wIHyR0RarSi-329">
          <mxGeometry y="30" width="180" height="30" as="geometry" />
        </mxCell>
        <mxCell id="aSBGOile0wIHyR0RarSi-331" value="FK" style="shape=partialRectangle;connectable=0;fillColor=none;top=0;left=0;bottom=0;right=0;fontStyle=1;overflow=hidden;whiteSpace=wrap;html=1;" vertex="1" parent="aSBGOile0wIHyR0RarSi-330">
          <mxGeometry width="30" height="30" as="geometry">
            <mxRectangle width="30" height="30" as="alternateBounds" />
          </mxGeometry>
        </mxCell>
        <mxCell id="aSBGOile0wIHyR0RarSi-332" value="URL" style="shape=partialRectangle;connectable=0;fillColor=none;top=0;left=0;bottom=0;right=0;align=left;spacingLeft=6;fontStyle=5;overflow=hidden;whiteSpace=wrap;html=1;" vertex="1" parent="aSBGOile0wIHyR0RarSi-330">
          <mxGeometry x="30" width="150" height="30" as="geometry">
            <mxRectangle width="150" height="30" as="alternateBounds" />
          </mxGeometry>
        </mxCell>
        <mxCell id="aSBGOile0wIHyR0RarSi-333" value="" style="shape=tableRow;horizontal=0;startSize=0;swimlaneHead=0;swimlaneBody=0;fillColor=none;collapsible=0;dropTarget=0;points=[[0,0.5],[1,0.5]];portConstraint=eastwest;top=0;left=0;right=0;bottom=1;" vertex="1" parent="aSBGOile0wIHyR0RarSi-329">
          <mxGeometry y="60" width="180" height="30" as="geometry" />
        </mxCell>
        <mxCell id="aSBGOile0wIHyR0RarSi-334" value="FK" style="shape=partialRectangle;connectable=0;fillColor=none;top=0;left=0;bottom=0;right=0;fontStyle=1;overflow=hidden;whiteSpace=wrap;html=1;" vertex="1" parent="aSBGOile0wIHyR0RarSi-333">
          <mxGeometry width="30" height="30" as="geometry">
            <mxRectangle width="30" height="30" as="alternateBounds" />
          </mxGeometry>
        </mxCell>
        <mxCell id="aSBGOile0wIHyR0RarSi-335" value="UserAccountEmail" style="shape=partialRectangle;connectable=0;fillColor=none;top=0;left=0;bottom=0;right=0;align=left;spacingLeft=6;fontStyle=5;overflow=hidden;whiteSpace=wrap;html=1;" vertex="1" parent="aSBGOile0wIHyR0RarSi-333">
          <mxGeometry x="30" width="150" height="30" as="geometry">
            <mxRectangle width="150" height="30" as="alternateBounds" />
          </mxGeometry>
        </mxCell>
        <mxCell id="aSBGOile0wIHyR0RarSi-339" value="" style="shape=tableRow;horizontal=0;startSize=0;swimlaneHead=0;swimlaneBody=0;fillColor=none;collapsible=0;dropTarget=0;points=[[0,0.5],[1,0.5]];portConstraint=eastwest;top=0;left=0;right=0;bottom=0;" vertex="1" parent="aSBGOile0wIHyR0RarSi-329">
          <mxGeometry y="90" width="180" height="30" as="geometry" />
        </mxCell>
        <mxCell id="aSBGOile0wIHyR0RarSi-340" value="" style="shape=partialRectangle;connectable=0;fillColor=none;top=0;left=0;bottom=0;right=0;editable=1;overflow=hidden;whiteSpace=wrap;html=1;" vertex="1" parent="aSBGOile0wIHyR0RarSi-339">
          <mxGeometry width="30" height="30" as="geometry">
            <mxRectangle width="30" height="30" as="alternateBounds" />
          </mxGeometry>
        </mxCell>
        <mxCell id="aSBGOile0wIHyR0RarSi-341" value="isLiked" style="shape=partialRectangle;connectable=0;fillColor=none;top=0;left=0;bottom=0;right=0;align=left;spacingLeft=6;overflow=hidden;whiteSpace=wrap;html=1;" vertex="1" parent="aSBGOile0wIHyR0RarSi-339">
          <mxGeometry x="30" width="150" height="30" as="geometry">
            <mxRectangle width="150" height="30" as="alternateBounds" />
          </mxGeometry>
        </mxCell>
        <mxCell id="aSBGOile0wIHyR0RarSi-342" value="" style="shape=tableRow;horizontal=0;startSize=0;swimlaneHead=0;swimlaneBody=0;fillColor=none;collapsible=0;dropTarget=0;points=[[0,0.5],[1,0.5]];portConstraint=eastwest;top=0;left=0;right=0;bottom=0;" vertex="1" parent="aSBGOile0wIHyR0RarSi-329">
          <mxGeometry y="120" width="180" height="30" as="geometry" />
        </mxCell>
        <mxCell id="aSBGOile0wIHyR0RarSi-343" value="" style="shape=partialRectangle;connectable=0;fillColor=none;top=0;left=0;bottom=0;right=0;editable=1;overflow=hidden;whiteSpace=wrap;html=1;" vertex="1" parent="aSBGOile0wIHyR0RarSi-342">
          <mxGeometry width="30" height="30" as="geometry">
            <mxRectangle width="30" height="30" as="alternateBounds" />
          </mxGeometry>
        </mxCell>
        <mxCell id="aSBGOile0wIHyR0RarSi-344" value="LikeDate" style="shape=partialRectangle;connectable=0;fillColor=none;top=0;left=0;bottom=0;right=0;align=left;spacingLeft=6;overflow=hidden;whiteSpace=wrap;html=1;" vertex="1" parent="aSBGOile0wIHyR0RarSi-342">
          <mxGeometry x="30" width="150" height="30" as="geometry">
            <mxRectangle width="150" height="30" as="alternateBounds" />
          </mxGeometry>
        </mxCell>
        <mxCell id="aSBGOile0wIHyR0RarSi-356" value="FactPlaylistVideo" style="shape=table;startSize=30;container=1;collapsible=1;childLayout=tableLayout;fixedRows=1;rowLines=0;fontStyle=1;align=center;resizeLast=1;html=1;" vertex="1" parent="1">
          <mxGeometry x="877.39" y="150" width="195" height="120" as="geometry" />
        </mxCell>
        <mxCell id="aSBGOile0wIHyR0RarSi-357" value="" style="shape=tableRow;horizontal=0;startSize=0;swimlaneHead=0;swimlaneBody=0;fillColor=none;collapsible=0;dropTarget=0;points=[[0,0.5],[1,0.5]];portConstraint=eastwest;top=0;left=0;right=0;bottom=1;" vertex="1" parent="aSBGOile0wIHyR0RarSi-356">
          <mxGeometry y="30" width="195" height="30" as="geometry" />
        </mxCell>
        <mxCell id="aSBGOile0wIHyR0RarSi-358" value="FK" style="shape=partialRectangle;connectable=0;fillColor=none;top=0;left=0;bottom=0;right=0;fontStyle=1;overflow=hidden;whiteSpace=wrap;html=1;" vertex="1" parent="aSBGOile0wIHyR0RarSi-357">
          <mxGeometry width="30" height="30" as="geometry">
            <mxRectangle width="30" height="30" as="alternateBounds" />
          </mxGeometry>
        </mxCell>
        <mxCell id="aSBGOile0wIHyR0RarSi-359" value="PlaylistName" style="shape=partialRectangle;connectable=0;fillColor=none;top=0;left=0;bottom=0;right=0;align=left;spacingLeft=6;fontStyle=5;overflow=hidden;whiteSpace=wrap;html=1;" vertex="1" parent="aSBGOile0wIHyR0RarSi-357">
          <mxGeometry x="30" width="165" height="30" as="geometry">
            <mxRectangle width="165" height="30" as="alternateBounds" />
          </mxGeometry>
        </mxCell>
        <mxCell id="aSBGOile0wIHyR0RarSi-360" value="" style="shape=tableRow;horizontal=0;startSize=0;swimlaneHead=0;swimlaneBody=0;fillColor=none;collapsible=0;dropTarget=0;points=[[0,0.5],[1,0.5]];portConstraint=eastwest;top=0;left=0;right=0;bottom=1;" vertex="1" parent="aSBGOile0wIHyR0RarSi-356">
          <mxGeometry y="60" width="195" height="30" as="geometry" />
        </mxCell>
        <mxCell id="aSBGOile0wIHyR0RarSi-361" value="FK" style="shape=partialRectangle;connectable=0;fillColor=none;top=0;left=0;bottom=0;right=0;fontStyle=1;overflow=hidden;whiteSpace=wrap;html=1;" vertex="1" parent="aSBGOile0wIHyR0RarSi-360">
          <mxGeometry width="30" height="30" as="geometry">
            <mxRectangle width="30" height="30" as="alternateBounds" />
          </mxGeometry>
        </mxCell>
        <mxCell id="aSBGOile0wIHyR0RarSi-362" value="UserAccountEmail" style="shape=partialRectangle;connectable=0;fillColor=none;top=0;left=0;bottom=0;right=0;align=left;spacingLeft=6;fontStyle=5;overflow=hidden;whiteSpace=wrap;html=1;" vertex="1" parent="aSBGOile0wIHyR0RarSi-360">
          <mxGeometry x="30" width="165" height="30" as="geometry">
            <mxRectangle width="165" height="30" as="alternateBounds" />
          </mxGeometry>
        </mxCell>
        <mxCell id="aSBGOile0wIHyR0RarSi-378" value="" style="shape=tableRow;horizontal=0;startSize=0;swimlaneHead=0;swimlaneBody=0;fillColor=none;collapsible=0;dropTarget=0;points=[[0,0.5],[1,0.5]];portConstraint=eastwest;top=0;left=0;right=0;bottom=1;" vertex="1" parent="aSBGOile0wIHyR0RarSi-356">
          <mxGeometry y="90" width="195" height="30" as="geometry" />
        </mxCell>
        <mxCell id="aSBGOile0wIHyR0RarSi-379" value="FK" style="shape=partialRectangle;connectable=0;fillColor=none;top=0;left=0;bottom=0;right=0;fontStyle=1;overflow=hidden;whiteSpace=wrap;html=1;" vertex="1" parent="aSBGOile0wIHyR0RarSi-378">
          <mxGeometry width="30" height="30" as="geometry">
            <mxRectangle width="30" height="30" as="alternateBounds" />
          </mxGeometry>
        </mxCell>
        <mxCell id="aSBGOile0wIHyR0RarSi-380" value="URL" style="shape=partialRectangle;connectable=0;fillColor=none;top=0;left=0;bottom=0;right=0;align=left;spacingLeft=6;fontStyle=5;overflow=hidden;whiteSpace=wrap;html=1;" vertex="1" parent="aSBGOile0wIHyR0RarSi-378">
          <mxGeometry x="30" width="165" height="30" as="geometry">
            <mxRectangle width="165" height="30" as="alternateBounds" />
          </mxGeometry>
        </mxCell>
        <mxCell id="aSBGOile0wIHyR0RarSi-385" value="" style="edgeStyle=orthogonalEdgeStyle;fontSize=12;html=1;endArrow=ERzeroToMany;startArrow=ERmandOne;rounded=0;entryX=1;entryY=0.5;entryDx=0;entryDy=0;exitX=0;exitY=0.5;exitDx=0;exitDy=0;" edge="1" parent="1" source="xpVKkxNU8PtLnsWlY8sR-300" target="xpVKkxNU8PtLnsWlY8sR-465">
          <mxGeometry width="100" height="100" relative="1" as="geometry">
            <mxPoint x="1900" y="-520" as="sourcePoint" />
            <mxPoint x="2000" y="-620" as="targetPoint" />
          </mxGeometry>
        </mxCell>
        <mxCell id="aSBGOile0wIHyR0RarSi-386" value="" style="edgeStyle=orthogonalEdgeStyle;fontSize=12;html=1;endArrow=ERzeroToMany;startArrow=ERzeroToOne;rounded=0;entryX=0;entryY=0.5;entryDx=0;entryDy=0;exitX=0;exitY=0.5;exitDx=0;exitDy=0;" edge="1" parent="1" source="xpVKkxNU8PtLnsWlY8sR-262" target="xpVKkxNU8PtLnsWlY8sR-476">
          <mxGeometry width="100" height="100" relative="1" as="geometry">
            <mxPoint x="1130" y="-462.29887863685343" as="sourcePoint" />
            <mxPoint x="1160" y="-350" as="targetPoint" />
            <Array as="points">
              <mxPoint x="1190" y="-735" />
              <mxPoint x="1190" y="-150" />
            </Array>
          </mxGeometry>
        </mxCell>
        <mxCell id="aSBGOile0wIHyR0RarSi-387" value="" style="endArrow=none;html=1;rounded=0;entryX=0;entryY=0.5;entryDx=0;entryDy=0;" edge="1" parent="1" source="aSBGOile0wIHyR0RarSi-388" target="xpVKkxNU8PtLnsWlY8sR-212">
          <mxGeometry relative="1" as="geometry">
            <mxPoint x="-530" y="-650.74" as="sourcePoint" />
            <mxPoint x="-370" y="-650.74" as="targetPoint" />
          </mxGeometry>
        </mxCell>
        <mxCell id="aSBGOile0wIHyR0RarSi-389" value="" style="endArrow=none;html=1;rounded=0;entryX=0;entryY=0.5;entryDx=0;entryDy=0;" edge="1" parent="1" target="aSBGOile0wIHyR0RarSi-388">
          <mxGeometry relative="1" as="geometry">
            <mxPoint x="-530" y="-650.74" as="sourcePoint" />
            <mxPoint x="-320" y="-650" as="targetPoint" />
          </mxGeometry>
        </mxCell>
        <mxCell id="aSBGOile0wIHyR0RarSi-388" value="Contains" style="shape=rhombus;perimeter=rhombusPerimeter;whiteSpace=wrap;html=1;align=center;" vertex="1" parent="1">
          <mxGeometry x="-460" y="-680" width="80" height="60" as="geometry" />
        </mxCell>
        <mxCell id="aSBGOile0wIHyR0RarSi-390" value="" style="endArrow=none;html=1;rounded=0;edgeStyle=orthogonalEdgeStyle;exitX=0.75;exitY=1;exitDx=0;exitDy=0;" edge="1" parent="1" source="xpVKkxNU8PtLnsWlY8sR-212">
          <mxGeometry relative="1" as="geometry">
            <mxPoint x="-200" y="-470" as="sourcePoint" />
            <mxPoint x="-40" y="-470" as="targetPoint" />
            <Array as="points">
              <mxPoint x="-245" y="-470" />
            </Array>
          </mxGeometry>
        </mxCell>
        <mxCell id="aSBGOile0wIHyR0RarSi-391" value="" style="endArrow=none;html=1;rounded=0;entryX=0.5;entryY=1;entryDx=0;entryDy=0;edgeStyle=orthogonalEdgeStyle;" edge="1" parent="1" target="xpVKkxNU8PtLnsWlY8sR-43">
          <mxGeometry relative="1" as="geometry">
            <mxPoint x="60" y="-470" as="sourcePoint" />
            <mxPoint x="220" y="-470" as="targetPoint" />
          </mxGeometry>
        </mxCell>
        <mxCell id="aSBGOile0wIHyR0RarSi-392" value="" style="endArrow=none;html=1;rounded=0;edgeStyle=orthogonalEdgeStyle;exitX=0.5;exitY=1;exitDx=0;exitDy=0;" edge="1" parent="1" source="xpVKkxNU8PtLnsWlY8sR-35">
          <mxGeometry relative="1" as="geometry">
            <mxPoint x="-810" y="-650.62" as="sourcePoint" />
            <mxPoint x="-650" y="-650.62" as="targetPoint" />
            <Array as="points">
              <mxPoint y="-190" />
              <mxPoint x="-730" y="-190" />
              <mxPoint x="-730" y="-651" />
            </Array>
          </mxGeometry>
        </mxCell>
        <mxCell id="aSBGOile0wIHyR0RarSi-393" value="subscription" style="shape=rhombus;perimeter=rhombusPerimeter;whiteSpace=wrap;html=1;align=center;" vertex="1" parent="1">
          <mxGeometry x="-40" y="-270" width="80" height="60" as="geometry" />
        </mxCell>
        <mxCell id="aSBGOile0wIHyR0RarSi-394" value="" style="endArrow=none;html=1;rounded=0;edgeStyle=orthogonalEdgeStyle;exitX=0;exitY=0.5;exitDx=0;exitDy=0;" edge="1" parent="1" source="xpVKkxNU8PtLnsWlY8sR-223">
          <mxGeometry relative="1" as="geometry">
            <mxPoint x="-810" y="-630" as="sourcePoint" />
            <mxPoint x="-650" y="-630" as="targetPoint" />
            <Array as="points">
              <mxPoint x="-720" y="-230" />
              <mxPoint x="-720" y="-630" />
            </Array>
          </mxGeometry>
        </mxCell>
        <mxCell id="aSBGOile0wIHyR0RarSi-395" value="" style="endArrow=none;html=1;rounded=0;edgeStyle=orthogonalEdgeStyle;exitX=0;exitY=0.5;exitDx=0;exitDy=0;" edge="1" parent="1" source="xpVKkxNU8PtLnsWlY8sR-35" target="xpVKkxNU8PtLnsWlY8sR-223">
          <mxGeometry relative="1" as="geometry">
            <mxPoint x="-50" y="-300" as="sourcePoint" />
            <mxPoint x="-650" y="-630" as="targetPoint" />
            <Array as="points" />
          </mxGeometry>
        </mxCell>
        <mxCell id="xpVKkxNU8PtLnsWlY8sR-223" value="subscription" style="shape=rhombus;perimeter=rhombusPerimeter;whiteSpace=wrap;html=1;align=center;" parent="1" vertex="1">
          <mxGeometry x="-150" y="-260" width="80" height="60" as="geometry" />
        </mxCell>
        <mxCell id="aSBGOile0wIHyR0RarSi-396" value="" style="endArrow=none;html=1;rounded=0;exitX=0.5;exitY=1;exitDx=0;exitDy=0;entryX=0.5;entryY=0;entryDx=0;entryDy=0;edgeStyle=orthogonalEdgeStyle;" edge="1" parent="1" source="xpVKkxNU8PtLnsWlY8sR-21" target="xpVKkxNU8PtLnsWlY8sR-20">
          <mxGeometry relative="1" as="geometry">
            <mxPoint x="-670" y="-500" as="sourcePoint" />
            <mxPoint x="-510" y="-500" as="targetPoint" />
            <Array as="points">
              <mxPoint x="-660" y="-490" />
              <mxPoint x="-600" y="-490" />
            </Array>
          </mxGeometry>
        </mxCell>
        <mxCell id="aSBGOile0wIHyR0RarSi-397" value="" style="endArrow=none;html=1;rounded=0;exitX=0.471;exitY=0.981;exitDx=0;exitDy=0;exitPerimeter=0;edgeStyle=orthogonalEdgeStyle;" edge="1" parent="1" source="xpVKkxNU8PtLnsWlY8sR-28">
          <mxGeometry relative="1" as="geometry">
            <mxPoint x="-670" y="-354" as="sourcePoint" />
            <mxPoint x="-600" y="-320" as="targetPoint" />
            <Array as="points">
              <mxPoint x="-663" y="-338" />
              <mxPoint x="-600" y="-338" />
            </Array>
          </mxGeometry>
        </mxCell>
        <mxCell id="aSBGOile0wIHyR0RarSi-398" value="" style="endArrow=none;html=1;rounded=0;exitX=0.5;exitY=1;exitDx=0;exitDy=0;edgeStyle=orthogonalEdgeStyle;" edge="1" parent="1">
          <mxGeometry relative="1" as="geometry">
            <mxPoint x="-539.98" y="-510" as="sourcePoint" />
            <mxPoint x="-600" y="-470" as="targetPoint" />
            <Array as="points">
              <mxPoint x="-540" y="-490" />
              <mxPoint x="-600" y="-490" />
              <mxPoint x="-600" y="-470" />
            </Array>
          </mxGeometry>
        </mxCell>
        <mxCell id="aSBGOile0wIHyR0RarSi-399" value="" style="endArrow=none;html=1;rounded=0;exitX=0.471;exitY=0.981;exitDx=0;exitDy=0;exitPerimeter=0;edgeStyle=orthogonalEdgeStyle;entryX=0.5;entryY=0;entryDx=0;entryDy=0;" edge="1" parent="1" target="xpVKkxNU8PtLnsWlY8sR-27">
          <mxGeometry relative="1" as="geometry">
            <mxPoint x="-540" y="-360" as="sourcePoint" />
            <mxPoint x="-477" y="-319" as="targetPoint" />
            <Array as="points">
              <mxPoint x="-540" y="-337" />
              <mxPoint x="-600" y="-337" />
            </Array>
          </mxGeometry>
        </mxCell>
        <mxCell id="aSBGOile0wIHyR0RarSi-400" value="FactSubscription" style="shape=table;startSize=30;container=1;collapsible=1;childLayout=tableLayout;fixedRows=1;rowLines=0;fontStyle=1;align=center;resizeLast=1;html=1;" vertex="1" parent="1">
          <mxGeometry x="119.88999999999999" y="160" width="205" height="120" as="geometry" />
        </mxCell>
        <mxCell id="aSBGOile0wIHyR0RarSi-401" value="" style="shape=tableRow;horizontal=0;startSize=0;swimlaneHead=0;swimlaneBody=0;fillColor=none;collapsible=0;dropTarget=0;points=[[0,0.5],[1,0.5]];portConstraint=eastwest;top=0;left=0;right=0;bottom=1;" vertex="1" parent="aSBGOile0wIHyR0RarSi-400">
          <mxGeometry y="30" width="205" height="30" as="geometry" />
        </mxCell>
        <mxCell id="aSBGOile0wIHyR0RarSi-402" value="FK" style="shape=partialRectangle;connectable=0;fillColor=none;top=0;left=0;bottom=0;right=0;fontStyle=1;overflow=hidden;whiteSpace=wrap;html=1;" vertex="1" parent="aSBGOile0wIHyR0RarSi-401">
          <mxGeometry width="30" height="30" as="geometry">
            <mxRectangle width="30" height="30" as="alternateBounds" />
          </mxGeometry>
        </mxCell>
        <mxCell id="aSBGOile0wIHyR0RarSi-403" value="FromUserAccountEmail" style="shape=partialRectangle;connectable=0;fillColor=none;top=0;left=0;bottom=0;right=0;align=left;spacingLeft=6;fontStyle=5;overflow=hidden;whiteSpace=wrap;html=1;" vertex="1" parent="aSBGOile0wIHyR0RarSi-401">
          <mxGeometry x="30" width="175" height="30" as="geometry">
            <mxRectangle width="175" height="30" as="alternateBounds" />
          </mxGeometry>
        </mxCell>
        <mxCell id="aSBGOile0wIHyR0RarSi-413" value="" style="shape=tableRow;horizontal=0;startSize=0;swimlaneHead=0;swimlaneBody=0;fillColor=none;collapsible=0;dropTarget=0;points=[[0,0.5],[1,0.5]];portConstraint=eastwest;top=0;left=0;right=0;bottom=1;" vertex="1" parent="aSBGOile0wIHyR0RarSi-400">
          <mxGeometry y="60" width="205" height="30" as="geometry" />
        </mxCell>
        <mxCell id="aSBGOile0wIHyR0RarSi-414" value="FK" style="shape=partialRectangle;connectable=0;fillColor=none;top=0;left=0;bottom=0;right=0;fontStyle=1;overflow=hidden;whiteSpace=wrap;html=1;" vertex="1" parent="aSBGOile0wIHyR0RarSi-413">
          <mxGeometry width="30" height="30" as="geometry">
            <mxRectangle width="30" height="30" as="alternateBounds" />
          </mxGeometry>
        </mxCell>
        <mxCell id="aSBGOile0wIHyR0RarSi-415" value="ToUserAccountEmail" style="shape=partialRectangle;connectable=0;fillColor=none;top=0;left=0;bottom=0;right=0;align=left;spacingLeft=6;fontStyle=5;overflow=hidden;whiteSpace=wrap;html=1;" vertex="1" parent="aSBGOile0wIHyR0RarSi-413">
          <mxGeometry x="30" width="175" height="30" as="geometry">
            <mxRectangle width="175" height="30" as="alternateBounds" />
          </mxGeometry>
        </mxCell>
        <mxCell id="aSBGOile0wIHyR0RarSi-410" value="" style="shape=tableRow;horizontal=0;startSize=0;swimlaneHead=0;swimlaneBody=0;fillColor=none;collapsible=0;dropTarget=0;points=[[0,0.5],[1,0.5]];portConstraint=eastwest;top=0;left=0;right=0;bottom=0;" vertex="1" parent="aSBGOile0wIHyR0RarSi-400">
          <mxGeometry y="90" width="205" height="30" as="geometry" />
        </mxCell>
        <mxCell id="aSBGOile0wIHyR0RarSi-411" value="" style="shape=partialRectangle;connectable=0;fillColor=none;top=0;left=0;bottom=0;right=0;editable=1;overflow=hidden;whiteSpace=wrap;html=1;" vertex="1" parent="aSBGOile0wIHyR0RarSi-410">
          <mxGeometry width="30" height="30" as="geometry">
            <mxRectangle width="30" height="30" as="alternateBounds" />
          </mxGeometry>
        </mxCell>
        <mxCell id="aSBGOile0wIHyR0RarSi-412" value="SubscriptionData" style="shape=partialRectangle;connectable=0;fillColor=none;top=0;left=0;bottom=0;right=0;align=left;spacingLeft=6;overflow=hidden;whiteSpace=wrap;html=1;" vertex="1" parent="aSBGOile0wIHyR0RarSi-410">
          <mxGeometry x="30" width="175" height="30" as="geometry">
            <mxRectangle width="175" height="30" as="alternateBounds" />
          </mxGeometry>
        </mxCell>
        <mxCell id="aSBGOile0wIHyR0RarSi-417" value="DimUserAccount" style="shape=table;startSize=30;container=1;collapsible=1;childLayout=tableLayout;fixedRows=1;rowLines=0;fontStyle=1;align=center;resizeLast=1;html=1;" vertex="1" parent="1">
          <mxGeometry x="119.88999999999999" y="320" width="180" height="270" as="geometry" />
        </mxCell>
        <mxCell id="aSBGOile0wIHyR0RarSi-418" value="" style="shape=tableRow;horizontal=0;startSize=0;swimlaneHead=0;swimlaneBody=0;fillColor=none;collapsible=0;dropTarget=0;points=[[0,0.5],[1,0.5]];portConstraint=eastwest;top=0;left=0;right=0;bottom=1;" vertex="1" parent="aSBGOile0wIHyR0RarSi-417">
          <mxGeometry y="30" width="180" height="30" as="geometry" />
        </mxCell>
        <mxCell id="aSBGOile0wIHyR0RarSi-419" value="PK" style="shape=partialRectangle;connectable=0;fillColor=none;top=0;left=0;bottom=0;right=0;fontStyle=1;overflow=hidden;whiteSpace=wrap;html=1;" vertex="1" parent="aSBGOile0wIHyR0RarSi-418">
          <mxGeometry width="30" height="30" as="geometry">
            <mxRectangle width="30" height="30" as="alternateBounds" />
          </mxGeometry>
        </mxCell>
        <mxCell id="aSBGOile0wIHyR0RarSi-420" value="Email" style="shape=partialRectangle;connectable=0;fillColor=none;top=0;left=0;bottom=0;right=0;align=left;spacingLeft=6;fontStyle=5;overflow=hidden;whiteSpace=wrap;html=1;" vertex="1" parent="aSBGOile0wIHyR0RarSi-418">
          <mxGeometry x="30" width="150" height="30" as="geometry">
            <mxRectangle width="150" height="30" as="alternateBounds" />
          </mxGeometry>
        </mxCell>
        <mxCell id="aSBGOile0wIHyR0RarSi-421" value="" style="shape=tableRow;horizontal=0;startSize=0;swimlaneHead=0;swimlaneBody=0;fillColor=none;collapsible=0;dropTarget=0;points=[[0,0.5],[1,0.5]];portConstraint=eastwest;top=0;left=0;right=0;bottom=0;" vertex="1" parent="aSBGOile0wIHyR0RarSi-417">
          <mxGeometry y="60" width="180" height="30" as="geometry" />
        </mxCell>
        <mxCell id="aSBGOile0wIHyR0RarSi-422" value="" style="shape=partialRectangle;connectable=0;fillColor=none;top=0;left=0;bottom=0;right=0;editable=1;overflow=hidden;whiteSpace=wrap;html=1;" vertex="1" parent="aSBGOile0wIHyR0RarSi-421">
          <mxGeometry width="30" height="30" as="geometry">
            <mxRectangle width="30" height="30" as="alternateBounds" />
          </mxGeometry>
        </mxCell>
        <mxCell id="aSBGOile0wIHyR0RarSi-423" value="Username" style="shape=partialRectangle;connectable=0;fillColor=none;top=0;left=0;bottom=0;right=0;align=left;spacingLeft=6;overflow=hidden;whiteSpace=wrap;html=1;" vertex="1" parent="aSBGOile0wIHyR0RarSi-421">
          <mxGeometry x="30" width="150" height="30" as="geometry">
            <mxRectangle width="150" height="30" as="alternateBounds" />
          </mxGeometry>
        </mxCell>
        <mxCell id="aSBGOile0wIHyR0RarSi-424" value="" style="shape=tableRow;horizontal=0;startSize=0;swimlaneHead=0;swimlaneBody=0;fillColor=none;collapsible=0;dropTarget=0;points=[[0,0.5],[1,0.5]];portConstraint=eastwest;top=0;left=0;right=0;bottom=0;" vertex="1" parent="aSBGOile0wIHyR0RarSi-417">
          <mxGeometry y="90" width="180" height="30" as="geometry" />
        </mxCell>
        <mxCell id="aSBGOile0wIHyR0RarSi-425" value="" style="shape=partialRectangle;connectable=0;fillColor=none;top=0;left=0;bottom=0;right=0;editable=1;overflow=hidden;whiteSpace=wrap;html=1;" vertex="1" parent="aSBGOile0wIHyR0RarSi-424">
          <mxGeometry width="30" height="30" as="geometry">
            <mxRectangle width="30" height="30" as="alternateBounds" />
          </mxGeometry>
        </mxCell>
        <mxCell id="aSBGOile0wIHyR0RarSi-426" value="Password" style="shape=partialRectangle;connectable=0;fillColor=none;top=0;left=0;bottom=0;right=0;align=left;spacingLeft=6;overflow=hidden;whiteSpace=wrap;html=1;" vertex="1" parent="aSBGOile0wIHyR0RarSi-424">
          <mxGeometry x="30" width="150" height="30" as="geometry">
            <mxRectangle width="150" height="30" as="alternateBounds" />
          </mxGeometry>
        </mxCell>
        <mxCell id="aSBGOile0wIHyR0RarSi-427" value="" style="shape=tableRow;horizontal=0;startSize=0;swimlaneHead=0;swimlaneBody=0;fillColor=none;collapsible=0;dropTarget=0;points=[[0,0.5],[1,0.5]];portConstraint=eastwest;top=0;left=0;right=0;bottom=0;" vertex="1" parent="aSBGOile0wIHyR0RarSi-417">
          <mxGeometry y="120" width="180" height="30" as="geometry" />
        </mxCell>
        <mxCell id="aSBGOile0wIHyR0RarSi-428" value="" style="shape=partialRectangle;connectable=0;fillColor=none;top=0;left=0;bottom=0;right=0;editable=1;overflow=hidden;whiteSpace=wrap;html=1;" vertex="1" parent="aSBGOile0wIHyR0RarSi-427">
          <mxGeometry width="30" height="30" as="geometry">
            <mxRectangle width="30" height="30" as="alternateBounds" />
          </mxGeometry>
        </mxCell>
        <mxCell id="aSBGOile0wIHyR0RarSi-429" value="FirstName" style="shape=partialRectangle;connectable=0;fillColor=none;top=0;left=0;bottom=0;right=0;align=left;spacingLeft=6;overflow=hidden;whiteSpace=wrap;html=1;" vertex="1" parent="aSBGOile0wIHyR0RarSi-427">
          <mxGeometry x="30" width="150" height="30" as="geometry">
            <mxRectangle width="150" height="30" as="alternateBounds" />
          </mxGeometry>
        </mxCell>
        <mxCell id="aSBGOile0wIHyR0RarSi-430" value="" style="shape=tableRow;horizontal=0;startSize=0;swimlaneHead=0;swimlaneBody=0;fillColor=none;collapsible=0;dropTarget=0;points=[[0,0.5],[1,0.5]];portConstraint=eastwest;top=0;left=0;right=0;bottom=0;" vertex="1" parent="aSBGOile0wIHyR0RarSi-417">
          <mxGeometry y="150" width="180" height="30" as="geometry" />
        </mxCell>
        <mxCell id="aSBGOile0wIHyR0RarSi-431" value="" style="shape=partialRectangle;connectable=0;fillColor=none;top=0;left=0;bottom=0;right=0;editable=1;overflow=hidden;whiteSpace=wrap;html=1;" vertex="1" parent="aSBGOile0wIHyR0RarSi-430">
          <mxGeometry width="30" height="30" as="geometry">
            <mxRectangle width="30" height="30" as="alternateBounds" />
          </mxGeometry>
        </mxCell>
        <mxCell id="aSBGOile0wIHyR0RarSi-432" value="LastName" style="shape=partialRectangle;connectable=0;fillColor=none;top=0;left=0;bottom=0;right=0;align=left;spacingLeft=6;overflow=hidden;whiteSpace=wrap;html=1;" vertex="1" parent="aSBGOile0wIHyR0RarSi-430">
          <mxGeometry x="30" width="150" height="30" as="geometry">
            <mxRectangle width="150" height="30" as="alternateBounds" />
          </mxGeometry>
        </mxCell>
        <mxCell id="aSBGOile0wIHyR0RarSi-433" value="" style="shape=tableRow;horizontal=0;startSize=0;swimlaneHead=0;swimlaneBody=0;fillColor=none;collapsible=0;dropTarget=0;points=[[0,0.5],[1,0.5]];portConstraint=eastwest;top=0;left=0;right=0;bottom=0;" vertex="1" parent="aSBGOile0wIHyR0RarSi-417">
          <mxGeometry y="180" width="180" height="30" as="geometry" />
        </mxCell>
        <mxCell id="aSBGOile0wIHyR0RarSi-434" value="" style="shape=partialRectangle;connectable=0;fillColor=none;top=0;left=0;bottom=0;right=0;editable=1;overflow=hidden;whiteSpace=wrap;html=1;" vertex="1" parent="aSBGOile0wIHyR0RarSi-433">
          <mxGeometry width="30" height="30" as="geometry">
            <mxRectangle width="30" height="30" as="alternateBounds" />
          </mxGeometry>
        </mxCell>
        <mxCell id="aSBGOile0wIHyR0RarSi-435" value="DataOfCreation" style="shape=partialRectangle;connectable=0;fillColor=none;top=0;left=0;bottom=0;right=0;align=left;spacingLeft=6;overflow=hidden;whiteSpace=wrap;html=1;" vertex="1" parent="aSBGOile0wIHyR0RarSi-433">
          <mxGeometry x="30" width="150" height="30" as="geometry">
            <mxRectangle width="150" height="30" as="alternateBounds" />
          </mxGeometry>
        </mxCell>
        <mxCell id="aSBGOile0wIHyR0RarSi-436" value="" style="shape=tableRow;horizontal=0;startSize=0;swimlaneHead=0;swimlaneBody=0;fillColor=none;collapsible=0;dropTarget=0;points=[[0,0.5],[1,0.5]];portConstraint=eastwest;top=0;left=0;right=0;bottom=0;" vertex="1" parent="aSBGOile0wIHyR0RarSi-417">
          <mxGeometry y="210" width="180" height="30" as="geometry" />
        </mxCell>
        <mxCell id="aSBGOile0wIHyR0RarSi-437" value="" style="shape=partialRectangle;connectable=0;fillColor=none;top=0;left=0;bottom=0;right=0;editable=1;overflow=hidden;whiteSpace=wrap;html=1;" vertex="1" parent="aSBGOile0wIHyR0RarSi-436">
          <mxGeometry width="30" height="30" as="geometry">
            <mxRectangle width="30" height="30" as="alternateBounds" />
          </mxGeometry>
        </mxCell>
        <mxCell id="aSBGOile0wIHyR0RarSi-438" value="PhoneNumber" style="shape=partialRectangle;connectable=0;fillColor=none;top=0;left=0;bottom=0;right=0;align=left;spacingLeft=6;overflow=hidden;whiteSpace=wrap;html=1;" vertex="1" parent="aSBGOile0wIHyR0RarSi-436">
          <mxGeometry x="30" width="150" height="30" as="geometry">
            <mxRectangle width="150" height="30" as="alternateBounds" />
          </mxGeometry>
        </mxCell>
        <mxCell id="aSBGOile0wIHyR0RarSi-439" value="" style="shape=tableRow;horizontal=0;startSize=0;swimlaneHead=0;swimlaneBody=0;fillColor=none;collapsible=0;dropTarget=0;points=[[0,0.5],[1,0.5]];portConstraint=eastwest;top=0;left=0;right=0;bottom=0;" vertex="1" parent="aSBGOile0wIHyR0RarSi-417">
          <mxGeometry y="240" width="180" height="30" as="geometry" />
        </mxCell>
        <mxCell id="aSBGOile0wIHyR0RarSi-440" value="" style="shape=partialRectangle;connectable=0;fillColor=none;top=0;left=0;bottom=0;right=0;editable=1;overflow=hidden;whiteSpace=wrap;html=1;" vertex="1" parent="aSBGOile0wIHyR0RarSi-439">
          <mxGeometry width="30" height="30" as="geometry">
            <mxRectangle width="30" height="30" as="alternateBounds" />
          </mxGeometry>
        </mxCell>
        <mxCell id="aSBGOile0wIHyR0RarSi-441" value="Subscribtions" style="shape=partialRectangle;connectable=0;fillColor=none;top=0;left=0;bottom=0;right=0;align=left;spacingLeft=6;overflow=hidden;whiteSpace=wrap;html=1;" vertex="1" parent="aSBGOile0wIHyR0RarSi-439">
          <mxGeometry x="30" width="150" height="30" as="geometry">
            <mxRectangle width="150" height="30" as="alternateBounds" />
          </mxGeometry>
        </mxCell>
        <mxCell id="aSBGOile0wIHyR0RarSi-442" value="DimVideo" style="shape=table;startSize=30;container=1;collapsible=1;childLayout=tableLayout;fixedRows=1;rowLines=0;fontStyle=1;align=center;resizeLast=1;html=1;" vertex="1" parent="1">
          <mxGeometry x="599.89" y="320" width="180" height="240" as="geometry" />
        </mxCell>
        <mxCell id="aSBGOile0wIHyR0RarSi-443" value="" style="shape=tableRow;horizontal=0;startSize=0;swimlaneHead=0;swimlaneBody=0;fillColor=none;collapsible=0;dropTarget=0;points=[[0,0.5],[1,0.5]];portConstraint=eastwest;top=0;left=0;right=0;bottom=1;" vertex="1" parent="aSBGOile0wIHyR0RarSi-442">
          <mxGeometry y="30" width="180" height="30" as="geometry" />
        </mxCell>
        <mxCell id="aSBGOile0wIHyR0RarSi-444" value="PK" style="shape=partialRectangle;connectable=0;fillColor=none;top=0;left=0;bottom=0;right=0;fontStyle=1;overflow=hidden;whiteSpace=wrap;html=1;" vertex="1" parent="aSBGOile0wIHyR0RarSi-443">
          <mxGeometry width="30" height="30" as="geometry">
            <mxRectangle width="30" height="30" as="alternateBounds" />
          </mxGeometry>
        </mxCell>
        <mxCell id="aSBGOile0wIHyR0RarSi-445" value="URL" style="shape=partialRectangle;connectable=0;fillColor=none;top=0;left=0;bottom=0;right=0;align=left;spacingLeft=6;fontStyle=5;overflow=hidden;whiteSpace=wrap;html=1;" vertex="1" parent="aSBGOile0wIHyR0RarSi-443">
          <mxGeometry x="30" width="150" height="30" as="geometry">
            <mxRectangle width="150" height="30" as="alternateBounds" />
          </mxGeometry>
        </mxCell>
        <mxCell id="aSBGOile0wIHyR0RarSi-446" value="" style="shape=tableRow;horizontal=0;startSize=0;swimlaneHead=0;swimlaneBody=0;fillColor=none;collapsible=0;dropTarget=0;points=[[0,0.5],[1,0.5]];portConstraint=eastwest;top=0;left=0;right=0;bottom=1;" vertex="1" parent="aSBGOile0wIHyR0RarSi-442">
          <mxGeometry y="60" width="180" height="30" as="geometry" />
        </mxCell>
        <mxCell id="aSBGOile0wIHyR0RarSi-447" value="FK" style="shape=partialRectangle;connectable=0;fillColor=none;top=0;left=0;bottom=0;right=0;fontStyle=1;overflow=hidden;whiteSpace=wrap;html=1;" vertex="1" parent="aSBGOile0wIHyR0RarSi-446">
          <mxGeometry width="30" height="30" as="geometry">
            <mxRectangle width="30" height="30" as="alternateBounds" />
          </mxGeometry>
        </mxCell>
        <mxCell id="aSBGOile0wIHyR0RarSi-448" value="UserAccountEmail" style="shape=partialRectangle;connectable=0;fillColor=none;top=0;left=0;bottom=0;right=0;align=left;spacingLeft=6;fontStyle=5;overflow=hidden;whiteSpace=wrap;html=1;" vertex="1" parent="aSBGOile0wIHyR0RarSi-446">
          <mxGeometry x="30" width="150" height="30" as="geometry">
            <mxRectangle width="150" height="30" as="alternateBounds" />
          </mxGeometry>
        </mxCell>
        <mxCell id="aSBGOile0wIHyR0RarSi-449" value="" style="shape=tableRow;horizontal=0;startSize=0;swimlaneHead=0;swimlaneBody=0;fillColor=none;collapsible=0;dropTarget=0;points=[[0,0.5],[1,0.5]];portConstraint=eastwest;top=0;left=0;right=0;bottom=1;" vertex="1" parent="aSBGOile0wIHyR0RarSi-442">
          <mxGeometry y="90" width="180" height="30" as="geometry" />
        </mxCell>
        <mxCell id="aSBGOile0wIHyR0RarSi-450" value="FK" style="shape=partialRectangle;connectable=0;fillColor=none;top=0;left=0;bottom=0;right=0;fontStyle=1;overflow=hidden;whiteSpace=wrap;html=1;" vertex="1" parent="aSBGOile0wIHyR0RarSi-449">
          <mxGeometry width="30" height="30" as="geometry">
            <mxRectangle width="30" height="30" as="alternateBounds" />
          </mxGeometry>
        </mxCell>
        <mxCell id="aSBGOile0wIHyR0RarSi-451" value="Genre" style="shape=partialRectangle;connectable=0;fillColor=none;top=0;left=0;bottom=0;right=0;align=left;spacingLeft=6;fontStyle=5;overflow=hidden;whiteSpace=wrap;html=1;" vertex="1" parent="aSBGOile0wIHyR0RarSi-449">
          <mxGeometry x="30" width="150" height="30" as="geometry">
            <mxRectangle width="150" height="30" as="alternateBounds" />
          </mxGeometry>
        </mxCell>
        <mxCell id="aSBGOile0wIHyR0RarSi-452" value="" style="shape=tableRow;horizontal=0;startSize=0;swimlaneHead=0;swimlaneBody=0;fillColor=none;collapsible=0;dropTarget=0;points=[[0,0.5],[1,0.5]];portConstraint=eastwest;top=0;left=0;right=0;bottom=0;" vertex="1" parent="aSBGOile0wIHyR0RarSi-442">
          <mxGeometry y="120" width="180" height="30" as="geometry" />
        </mxCell>
        <mxCell id="aSBGOile0wIHyR0RarSi-453" value="" style="shape=partialRectangle;connectable=0;fillColor=none;top=0;left=0;bottom=0;right=0;editable=1;overflow=hidden;whiteSpace=wrap;html=1;" vertex="1" parent="aSBGOile0wIHyR0RarSi-452">
          <mxGeometry width="30" height="30" as="geometry">
            <mxRectangle width="30" height="30" as="alternateBounds" />
          </mxGeometry>
        </mxCell>
        <mxCell id="aSBGOile0wIHyR0RarSi-454" value="Title" style="shape=partialRectangle;connectable=0;fillColor=none;top=0;left=0;bottom=0;right=0;align=left;spacingLeft=6;overflow=hidden;whiteSpace=wrap;html=1;" vertex="1" parent="aSBGOile0wIHyR0RarSi-452">
          <mxGeometry x="30" width="150" height="30" as="geometry">
            <mxRectangle width="150" height="30" as="alternateBounds" />
          </mxGeometry>
        </mxCell>
        <mxCell id="aSBGOile0wIHyR0RarSi-455" value="" style="shape=tableRow;horizontal=0;startSize=0;swimlaneHead=0;swimlaneBody=0;fillColor=none;collapsible=0;dropTarget=0;points=[[0,0.5],[1,0.5]];portConstraint=eastwest;top=0;left=0;right=0;bottom=0;" vertex="1" parent="aSBGOile0wIHyR0RarSi-442">
          <mxGeometry y="150" width="180" height="30" as="geometry" />
        </mxCell>
        <mxCell id="aSBGOile0wIHyR0RarSi-456" value="" style="shape=partialRectangle;connectable=0;fillColor=none;top=0;left=0;bottom=0;right=0;editable=1;overflow=hidden;whiteSpace=wrap;html=1;" vertex="1" parent="aSBGOile0wIHyR0RarSi-455">
          <mxGeometry width="30" height="30" as="geometry">
            <mxRectangle width="30" height="30" as="alternateBounds" />
          </mxGeometry>
        </mxCell>
        <mxCell id="aSBGOile0wIHyR0RarSi-457" value="Published" style="shape=partialRectangle;connectable=0;fillColor=none;top=0;left=0;bottom=0;right=0;align=left;spacingLeft=6;overflow=hidden;whiteSpace=wrap;html=1;" vertex="1" parent="aSBGOile0wIHyR0RarSi-455">
          <mxGeometry x="30" width="150" height="30" as="geometry">
            <mxRectangle width="150" height="30" as="alternateBounds" />
          </mxGeometry>
        </mxCell>
        <mxCell id="aSBGOile0wIHyR0RarSi-458" value="" style="shape=tableRow;horizontal=0;startSize=0;swimlaneHead=0;swimlaneBody=0;fillColor=none;collapsible=0;dropTarget=0;points=[[0,0.5],[1,0.5]];portConstraint=eastwest;top=0;left=0;right=0;bottom=0;" vertex="1" parent="aSBGOile0wIHyR0RarSi-442">
          <mxGeometry y="180" width="180" height="30" as="geometry" />
        </mxCell>
        <mxCell id="aSBGOile0wIHyR0RarSi-459" value="" style="shape=partialRectangle;connectable=0;fillColor=none;top=0;left=0;bottom=0;right=0;editable=1;overflow=hidden;whiteSpace=wrap;html=1;" vertex="1" parent="aSBGOile0wIHyR0RarSi-458">
          <mxGeometry width="30" height="30" as="geometry">
            <mxRectangle width="30" height="30" as="alternateBounds" />
          </mxGeometry>
        </mxCell>
        <mxCell id="aSBGOile0wIHyR0RarSi-460" value="Duration" style="shape=partialRectangle;connectable=0;fillColor=none;top=0;left=0;bottom=0;right=0;align=left;spacingLeft=6;overflow=hidden;whiteSpace=wrap;html=1;" vertex="1" parent="aSBGOile0wIHyR0RarSi-458">
          <mxGeometry x="30" width="150" height="30" as="geometry">
            <mxRectangle width="150" height="30" as="alternateBounds" />
          </mxGeometry>
        </mxCell>
        <mxCell id="aSBGOile0wIHyR0RarSi-461" value="" style="shape=tableRow;horizontal=0;startSize=0;swimlaneHead=0;swimlaneBody=0;fillColor=none;collapsible=0;dropTarget=0;points=[[0,0.5],[1,0.5]];portConstraint=eastwest;top=0;left=0;right=0;bottom=0;" vertex="1" parent="aSBGOile0wIHyR0RarSi-442">
          <mxGeometry y="210" width="180" height="30" as="geometry" />
        </mxCell>
        <mxCell id="aSBGOile0wIHyR0RarSi-462" value="" style="shape=partialRectangle;connectable=0;fillColor=none;top=0;left=0;bottom=0;right=0;editable=1;overflow=hidden;whiteSpace=wrap;html=1;" vertex="1" parent="aSBGOile0wIHyR0RarSi-461">
          <mxGeometry width="30" height="30" as="geometry">
            <mxRectangle width="30" height="30" as="alternateBounds" />
          </mxGeometry>
        </mxCell>
        <mxCell id="aSBGOile0wIHyR0RarSi-463" value="Description" style="shape=partialRectangle;connectable=0;fillColor=none;top=0;left=0;bottom=0;right=0;align=left;spacingLeft=6;overflow=hidden;whiteSpace=wrap;html=1;" vertex="1" parent="aSBGOile0wIHyR0RarSi-461">
          <mxGeometry x="30" width="150" height="30" as="geometry">
            <mxRectangle width="150" height="30" as="alternateBounds" />
          </mxGeometry>
        </mxCell>
        <mxCell id="aSBGOile0wIHyR0RarSi-464" value="DimCategory" style="shape=table;startSize=30;container=1;collapsible=1;childLayout=tableLayout;fixedRows=1;rowLines=0;fontStyle=1;align=center;resizeLast=1;html=1;" vertex="1" parent="1">
          <mxGeometry x="874.89" y="320" width="200" height="90" as="geometry" />
        </mxCell>
        <mxCell id="aSBGOile0wIHyR0RarSi-465" value="" style="shape=tableRow;horizontal=0;startSize=0;swimlaneHead=0;swimlaneBody=0;fillColor=none;collapsible=0;dropTarget=0;points=[[0,0.5],[1,0.5]];portConstraint=eastwest;top=0;left=0;right=0;bottom=1;" vertex="1" parent="aSBGOile0wIHyR0RarSi-464">
          <mxGeometry y="30" width="200" height="30" as="geometry" />
        </mxCell>
        <mxCell id="aSBGOile0wIHyR0RarSi-466" value="PK" style="shape=partialRectangle;connectable=0;fillColor=none;top=0;left=0;bottom=0;right=0;fontStyle=1;overflow=hidden;whiteSpace=wrap;html=1;" vertex="1" parent="aSBGOile0wIHyR0RarSi-465">
          <mxGeometry width="30" height="30" as="geometry">
            <mxRectangle width="30" height="30" as="alternateBounds" />
          </mxGeometry>
        </mxCell>
        <mxCell id="aSBGOile0wIHyR0RarSi-467" value="Genre" style="shape=partialRectangle;connectable=0;fillColor=none;top=0;left=0;bottom=0;right=0;align=left;spacingLeft=6;fontStyle=5;overflow=hidden;whiteSpace=wrap;html=1;" vertex="1" parent="aSBGOile0wIHyR0RarSi-465">
          <mxGeometry x="30" width="170" height="30" as="geometry">
            <mxRectangle width="170" height="30" as="alternateBounds" />
          </mxGeometry>
        </mxCell>
        <mxCell id="aSBGOile0wIHyR0RarSi-468" value="" style="shape=tableRow;horizontal=0;startSize=0;swimlaneHead=0;swimlaneBody=0;fillColor=none;collapsible=0;dropTarget=0;points=[[0,0.5],[1,0.5]];portConstraint=eastwest;top=0;left=0;right=0;bottom=0;" vertex="1" parent="aSBGOile0wIHyR0RarSi-464">
          <mxGeometry y="60" width="200" height="30" as="geometry" />
        </mxCell>
        <mxCell id="aSBGOile0wIHyR0RarSi-469" value="" style="shape=partialRectangle;connectable=0;fillColor=none;top=0;left=0;bottom=0;right=0;editable=1;overflow=hidden;whiteSpace=wrap;html=1;" vertex="1" parent="aSBGOile0wIHyR0RarSi-468">
          <mxGeometry width="30" height="30" as="geometry">
            <mxRectangle width="30" height="30" as="alternateBounds" />
          </mxGeometry>
        </mxCell>
        <mxCell id="aSBGOile0wIHyR0RarSi-470" value="Description" style="shape=partialRectangle;connectable=0;fillColor=none;top=0;left=0;bottom=0;right=0;align=left;spacingLeft=6;overflow=hidden;whiteSpace=wrap;html=1;" vertex="1" parent="aSBGOile0wIHyR0RarSi-468">
          <mxGeometry x="30" width="150" height="30" as="geometry">
            <mxRectangle width="150" height="30" as="alternateBounds" />
          </mxGeometry>
        </mxCell>
        <mxCell id="aSBGOile0wIHyR0RarSi-471" value="" style="whiteSpace=wrap;html=1;startSize=30;fontStyle=1;" vertex="1" parent="aSBGOile0wIHyR0RarSi-468">
          <mxGeometry x="180" width="20" height="30" as="geometry">
            <mxRectangle width="20" height="30" as="alternateBounds" />
          </mxGeometry>
        </mxCell>
        <mxCell id="aSBGOile0wIHyR0RarSi-472" value="DimPlaylist" style="shape=table;startSize=30;container=1;collapsible=1;childLayout=tableLayout;fixedRows=1;rowLines=0;fontStyle=1;align=center;resizeLast=1;html=1;" vertex="1" parent="1">
          <mxGeometry x="589.89" y="150" width="180" height="120" as="geometry" />
        </mxCell>
        <mxCell id="aSBGOile0wIHyR0RarSi-473" value="" style="shape=tableRow;horizontal=0;startSize=0;swimlaneHead=0;swimlaneBody=0;fillColor=none;collapsible=0;dropTarget=0;points=[[0,0.5],[1,0.5]];portConstraint=eastwest;top=0;left=0;right=0;bottom=1;" vertex="1" parent="aSBGOile0wIHyR0RarSi-472">
          <mxGeometry y="30" width="180" height="30" as="geometry" />
        </mxCell>
        <mxCell id="aSBGOile0wIHyR0RarSi-474" value="PK" style="shape=partialRectangle;connectable=0;fillColor=none;top=0;left=0;bottom=0;right=0;fontStyle=1;overflow=hidden;whiteSpace=wrap;html=1;" vertex="1" parent="aSBGOile0wIHyR0RarSi-473">
          <mxGeometry width="30" height="30" as="geometry">
            <mxRectangle width="30" height="30" as="alternateBounds" />
          </mxGeometry>
        </mxCell>
        <mxCell id="aSBGOile0wIHyR0RarSi-475" value="PlaylistName" style="shape=partialRectangle;connectable=0;fillColor=none;top=0;left=0;bottom=0;right=0;align=left;spacingLeft=6;fontStyle=5;overflow=hidden;whiteSpace=wrap;html=1;" vertex="1" parent="aSBGOile0wIHyR0RarSi-473">
          <mxGeometry x="30" width="150" height="30" as="geometry">
            <mxRectangle width="150" height="30" as="alternateBounds" />
          </mxGeometry>
        </mxCell>
        <mxCell id="aSBGOile0wIHyR0RarSi-476" value="" style="shape=tableRow;horizontal=0;startSize=0;swimlaneHead=0;swimlaneBody=0;fillColor=none;collapsible=0;dropTarget=0;points=[[0,0.5],[1,0.5]];portConstraint=eastwest;top=0;left=0;right=0;bottom=1;" vertex="1" parent="aSBGOile0wIHyR0RarSi-472">
          <mxGeometry y="60" width="180" height="30" as="geometry" />
        </mxCell>
        <mxCell id="aSBGOile0wIHyR0RarSi-477" value="FK" style="shape=partialRectangle;connectable=0;fillColor=none;top=0;left=0;bottom=0;right=0;fontStyle=1;overflow=hidden;whiteSpace=wrap;html=1;" vertex="1" parent="aSBGOile0wIHyR0RarSi-476">
          <mxGeometry width="30" height="30" as="geometry">
            <mxRectangle width="30" height="30" as="alternateBounds" />
          </mxGeometry>
        </mxCell>
        <mxCell id="aSBGOile0wIHyR0RarSi-478" value="UserAccountEmail" style="shape=partialRectangle;connectable=0;fillColor=none;top=0;left=0;bottom=0;right=0;align=left;spacingLeft=6;fontStyle=5;overflow=hidden;whiteSpace=wrap;html=1;" vertex="1" parent="aSBGOile0wIHyR0RarSi-476">
          <mxGeometry x="30" width="150" height="30" as="geometry">
            <mxRectangle width="150" height="30" as="alternateBounds" />
          </mxGeometry>
        </mxCell>
        <mxCell id="aSBGOile0wIHyR0RarSi-479" value="" style="shape=tableRow;horizontal=0;startSize=0;swimlaneHead=0;swimlaneBody=0;fillColor=none;collapsible=0;dropTarget=0;points=[[0,0.5],[1,0.5]];portConstraint=eastwest;top=0;left=0;right=0;bottom=0;" vertex="1" parent="aSBGOile0wIHyR0RarSi-472">
          <mxGeometry y="90" width="180" height="30" as="geometry" />
        </mxCell>
        <mxCell id="aSBGOile0wIHyR0RarSi-480" value="" style="shape=partialRectangle;connectable=0;fillColor=none;top=0;left=0;bottom=0;right=0;editable=1;overflow=hidden;whiteSpace=wrap;html=1;" vertex="1" parent="aSBGOile0wIHyR0RarSi-479">
          <mxGeometry width="30" height="30" as="geometry">
            <mxRectangle width="30" height="30" as="alternateBounds" />
          </mxGeometry>
        </mxCell>
        <mxCell id="aSBGOile0wIHyR0RarSi-481" value="CreationDate" style="shape=partialRectangle;connectable=0;fillColor=none;top=0;left=0;bottom=0;right=0;align=left;spacingLeft=6;overflow=hidden;whiteSpace=wrap;html=1;" vertex="1" parent="aSBGOile0wIHyR0RarSi-479">
          <mxGeometry x="30" width="150" height="30" as="geometry">
            <mxRectangle width="150" height="30" as="alternateBounds" />
          </mxGeometry>
        </mxCell>
        <mxCell id="aSBGOile0wIHyR0RarSi-547" style="edgeStyle=orthogonalEdgeStyle;rounded=0;orthogonalLoop=1;jettySize=auto;html=1;exitX=1;exitY=0.5;exitDx=0;exitDy=0;" edge="1" parent="1" source="aSBGOile0wIHyR0RarSi-401">
          <mxGeometry relative="1" as="geometry">
            <mxPoint x="299.89" y="360" as="targetPoint" />
            <Array as="points">
              <mxPoint x="344.89" y="205" />
              <mxPoint x="344.89" y="360" />
              <mxPoint x="299.89" y="360" />
            </Array>
          </mxGeometry>
        </mxCell>
        <mxCell id="aSBGOile0wIHyR0RarSi-548" style="edgeStyle=orthogonalEdgeStyle;rounded=0;orthogonalLoop=1;jettySize=auto;html=1;exitX=0;exitY=0.5;exitDx=0;exitDy=0;entryX=0;entryY=0.5;entryDx=0;entryDy=0;" edge="1" parent="1" source="aSBGOile0wIHyR0RarSi-418" target="aSBGOile0wIHyR0RarSi-413">
          <mxGeometry relative="1" as="geometry">
            <Array as="points">
              <mxPoint x="119.88999999999999" y="360" />
              <mxPoint x="99.88999999999999" y="360" />
              <mxPoint x="99.88999999999999" y="235" />
            </Array>
          </mxGeometry>
        </mxCell>
        <mxCell id="aSBGOile0wIHyR0RarSi-549" style="edgeStyle=orthogonalEdgeStyle;rounded=0;orthogonalLoop=1;jettySize=auto;html=1;exitX=1;exitY=0.5;exitDx=0;exitDy=0;entryX=0;entryY=0.5;entryDx=0;entryDy=0;" edge="1" parent="1">
          <mxGeometry relative="1" as="geometry">
            <mxPoint x="299.89" y="370" as="sourcePoint" />
            <mxPoint x="599.89" y="400" as="targetPoint" />
            <Array as="points">
              <mxPoint x="339.89" y="370" />
              <mxPoint x="339.89" y="400" />
            </Array>
          </mxGeometry>
        </mxCell>
        <mxCell id="aSBGOile0wIHyR0RarSi-550" style="edgeStyle=orthogonalEdgeStyle;rounded=0;orthogonalLoop=1;jettySize=auto;html=1;exitX=0;exitY=0.5;exitDx=0;exitDy=0;entryX=0;entryY=0.5;entryDx=0;entryDy=0;" edge="1" parent="1" source="aSBGOile0wIHyR0RarSi-418" target="aSBGOile0wIHyR0RarSi-278">
          <mxGeometry relative="1" as="geometry">
            <Array as="points">
              <mxPoint x="119.88999999999999" y="370" />
              <mxPoint x="99.88999999999999" y="370" />
              <mxPoint x="99.88999999999999" y="745" />
            </Array>
          </mxGeometry>
        </mxCell>
        <mxCell id="aSBGOile0wIHyR0RarSi-551" style="edgeStyle=orthogonalEdgeStyle;rounded=0;orthogonalLoop=1;jettySize=auto;html=1;exitX=0;exitY=0.5;exitDx=0;exitDy=0;entryX=0;entryY=0.5;entryDx=0;entryDy=0;" edge="1" parent="1" source="aSBGOile0wIHyR0RarSi-418" target="aSBGOile0wIHyR0RarSi-333">
          <mxGeometry relative="1" as="geometry">
            <Array as="points">
              <mxPoint x="119.88999999999999" y="370" />
              <mxPoint x="79.88999999999999" y="370" />
              <mxPoint x="79.88999999999999" y="965" />
            </Array>
          </mxGeometry>
        </mxCell>
        <mxCell id="aSBGOile0wIHyR0RarSi-552" style="edgeStyle=orthogonalEdgeStyle;rounded=0;orthogonalLoop=1;jettySize=auto;html=1;exitX=0;exitY=0.5;exitDx=0;exitDy=0;" edge="1" parent="1" source="aSBGOile0wIHyR0RarSi-465" target="aSBGOile0wIHyR0RarSi-449">
          <mxGeometry relative="1" as="geometry">
            <Array as="points">
              <mxPoint x="849.89" y="365" />
              <mxPoint x="849.89" y="425" />
            </Array>
          </mxGeometry>
        </mxCell>
        <mxCell id="aSBGOile0wIHyR0RarSi-553" style="edgeStyle=orthogonalEdgeStyle;rounded=0;orthogonalLoop=1;jettySize=auto;html=1;exitX=0;exitY=0.5;exitDx=0;exitDy=0;entryX=1;entryY=0.5;entryDx=0;entryDy=0;" edge="1" parent="1" source="aSBGOile0wIHyR0RarSi-443" target="aSBGOile0wIHyR0RarSi-275">
          <mxGeometry relative="1" as="geometry">
            <Array as="points">
              <mxPoint x="599.89" y="370" />
              <mxPoint x="559.89" y="370" />
              <mxPoint x="559.89" y="715" />
            </Array>
          </mxGeometry>
        </mxCell>
        <mxCell id="aSBGOile0wIHyR0RarSi-554" style="edgeStyle=orthogonalEdgeStyle;rounded=0;orthogonalLoop=1;jettySize=auto;html=1;exitX=0;exitY=0.5;exitDx=0;exitDy=0;entryX=1;entryY=0.5;entryDx=0;entryDy=0;" edge="1" parent="1" source="aSBGOile0wIHyR0RarSi-443" target="aSBGOile0wIHyR0RarSi-330">
          <mxGeometry relative="1" as="geometry">
            <Array as="points">
              <mxPoint x="599.89" y="370" />
              <mxPoint x="539.89" y="370" />
              <mxPoint x="539.89" y="935" />
            </Array>
          </mxGeometry>
        </mxCell>
        <mxCell id="aSBGOile0wIHyR0RarSi-556" style="edgeStyle=orthogonalEdgeStyle;rounded=0;orthogonalLoop=1;jettySize=auto;html=1;exitX=1;exitY=0.5;exitDx=0;exitDy=0;entryX=0;entryY=0.5;entryDx=0;entryDy=0;" edge="1" parent="1" source="aSBGOile0wIHyR0RarSi-418" target="aSBGOile0wIHyR0RarSi-476">
          <mxGeometry relative="1" as="geometry" />
        </mxCell>
        <mxCell id="aSBGOile0wIHyR0RarSi-557" style="edgeStyle=orthogonalEdgeStyle;rounded=0;orthogonalLoop=1;jettySize=auto;html=1;exitX=1;exitY=0.5;exitDx=0;exitDy=0;entryX=0;entryY=0.5;entryDx=0;entryDy=0;" edge="1" parent="1" source="aSBGOile0wIHyR0RarSi-476" target="aSBGOile0wIHyR0RarSi-360">
          <mxGeometry relative="1" as="geometry" />
        </mxCell>
        <mxCell id="aSBGOile0wIHyR0RarSi-558" style="edgeStyle=orthogonalEdgeStyle;rounded=0;orthogonalLoop=1;jettySize=auto;html=1;exitX=1;exitY=0.5;exitDx=0;exitDy=0;entryX=0;entryY=0.5;entryDx=0;entryDy=0;" edge="1" parent="1" source="aSBGOile0wIHyR0RarSi-443" target="aSBGOile0wIHyR0RarSi-378">
          <mxGeometry relative="1" as="geometry">
            <Array as="points">
              <mxPoint x="809.89" y="365" />
              <mxPoint x="809.89" y="255" />
            </Array>
          </mxGeometry>
        </mxCell>
        <mxCell id="aSBGOile0wIHyR0RarSi-559" style="edgeStyle=orthogonalEdgeStyle;rounded=0;orthogonalLoop=1;jettySize=auto;html=1;exitX=1;exitY=0.5;exitDx=0;exitDy=0;" edge="1" parent="1" source="aSBGOile0wIHyR0RarSi-473" target="aSBGOile0wIHyR0RarSi-357">
          <mxGeometry relative="1" as="geometry" />
        </mxCell>
      </root>
    </mxGraphModel>
  </diagram>
</mxfile>
